
<svg xmlns="http://www.w3.org/2000/svg" width="123" height="100" viewBox="0 0 123 100">
    <defs>
        <filter id="8pqqpuxxla" color-interpolation-filters="auto">
            <feColorMatrix in="SourceGraphic" values="0 0 0 0 0.411765 0 0 0 0 0.003922 0 0 0 0 0.231373 0 0 0 1.000000 0"/>
        </filter>
    </defs>
    <g fill="none" fill-rule="evenodd">
        <g filter="url(#8pqqpuxxla)" transform="translate(-151.000000, -1425.000000)">
            <g>
                <path fill="#FFFEFD" d="M41.813 0c3.553 0 6.433 2.888 6.433 6.452v12.903c0 3.036-2.091 5.582-4.907 6.269l12.57 47.048c2.03-1.088 4.348-1.704 6.81-1.704 2.462 0 4.781.616 6.81 1.704L82.1 25.624c-2.816-.688-4.906-3.234-4.906-6.27V6.453c0-3.564 2.88-6.452 6.433-6.452H96.49c3.553 0 6.433 2.888 6.433 6.452v12.903c0 3.035-2.09 5.581-4.906 6.269l12.976 48.569h4.795c3.553 0 6.433 2.889 6.433 6.452v12.903c0 3.564-2.88 6.452-6.433 6.452h-12.865c-3.553 0-6.433-2.888-6.433-6.452V80.645c0-3.563 2.88-6.451 6.433-6.451l1.41-.001-12.928-48.387H88.71L74.874 77.599c1.414 2.188 2.256 4.782 2.316 7.57l.003.315c0 8.017-6.48 14.516-14.474 14.516-7.993 0-14.473-6.5-14.473-14.516 0-2.907.852-5.615 2.319-7.885L36.728 25.806h-2.697l-12.99 48.627c2.706.762 4.69 3.255 4.69 6.212v12.903c0 3.564-2.88 6.452-6.433 6.452H6.433C2.88 100 0 97.112 0 93.548V80.645c0-3.563 2.88-6.451 6.433-6.451l8.011-.001 12.978-48.57c-2.817-.686-4.907-3.232-4.907-6.268V6.452c0-3.564 2.88-6.452 6.432-6.452h12.866z" transform="translate(151.000000, 1425.000000)"/>
            </g>
        </g>
    </g>
</svg>
