
<svg xmlns="http://www.w3.org/2000/svg" width="280" height="234" viewBox="0 0 320 274">
    <defs>
        <linearGradient id="lpdnodrzta" x1="0%" x2="100%" y1="46.741%" y2="53.259%">
            <stop offset="0%" stop-color="#330C22"/>
            <stop offset="100%" stop-color="#69013B"/>
        </linearGradient>
        <linearGradient id="va4hlu40xb" x1="0%" x2="100%" y1="44.129%" y2="55.871%">
            <stop offset="0%" stop-color="#330C22"/>
            <stop offset="100%" stop-color="#69013B"/>
        </linearGradient>
        <linearGradient id="52uy5zmm4c" x1="0%" x2="100%" y1="44.074%" y2="55.926%">
            <stop offset="0%" stop-color="#330C22"/>
            <stop offset="100%" stop-color="#69013B"/>
        </linearGradient>
    </defs>
    <g fill="none" fill-rule="evenodd">
        <g>
            <g>
                <g>
                    <path fill="#ECDBE2" d="M0 6.163L19.69 0 38.786 6.654 49 10.213 28.747 17z" transform="translate(-242.000000, -192.000000) translate(242.000000, 192.000000) translate(17.000000, 150.000000)"/>
                    <path fill="#FFFEFD" d="M3 5.888L18.538 1 19 1.139 3.523 6zM6 6.888L21.538 2 22 2.139 6.523 7z" transform="translate(-242.000000, -192.000000) translate(242.000000, 192.000000) translate(17.000000, 150.000000)"/>
                    <path fill="#69013B" d="M9 7.888L24.538 3 25 3.139 17.059 5.633 9.523 8zM14 9.888L29.538 5 30 5.139 22.059 7.633 14.523 10zM12 8.888L27.538 4 28 4.139 20.059 6.633 12.523 9zM16 10.888L31.538 6 32 6.139 24.059 8.633 16.523 11zM21 11.888L36.538 7 37 7.139 29.059 9.633 21.523 12zM24 13.888L39.538 9 40 9.139 32.059 11.633 24.523 14zM28 14.888L43.538 10 44 10.139 36.059 12.633 28.523 15zM19 11.888L34.538 7 35 7.139 27.059 9.633 19.523 12z" transform="translate(-242.000000, -192.000000) translate(242.000000, 192.000000) translate(17.000000, 150.000000)"/>
                </g>
                <g opacity=".377">
                    <path fill="#ECDBE2" d="M0 6.163L19.69 0 38.786 6.654 49 10.213 28.747 17z" transform="translate(-242.000000, -192.000000) translate(242.000000, 192.000000) translate(246.000000, 191.000000)"/>
                    <path fill="#FFFEFD" d="M3 5.888L18.538 1 19 1.139 3.523 6zM6 6.888L21.538 2 22 2.139 6.523 7z" transform="translate(-242.000000, -192.000000) translate(242.000000, 192.000000) translate(246.000000, 191.000000)"/>
                    <path fill="#69013B" d="M9 7.888L24.538 3 25 3.139 17.059 5.633 9.523 8zM14 9.888L29.538 5 30 5.139 22.059 7.633 14.523 10zM12 8.888L27.538 4 28 4.139 20.059 6.633 12.523 9zM16 10.888L31.538 6 32 6.139 24.059 8.633 16.523 11zM21 11.888L36.538 7 37 7.139 29.059 9.633 21.523 12zM24 13.888L39.538 9 40 9.139 32.059 11.633 24.523 14zM28 14.888L43.538 10 44 10.139 36.059 12.633 28.523 15zM19 11.888L34.538 7 35 7.139 27.059 9.633 19.523 12z" transform="translate(-242.000000, -192.000000) translate(242.000000, 192.000000) translate(246.000000, 191.000000)"/>
                </g>
                <g opacity=".621">
                    <path fill="#ECDBE2" d="M0 6.163L19.69 0 38.786 6.654 49 10.213 28.747 17z" transform="translate(-242.000000, -192.000000) translate(242.000000, 192.000000) translate(207.000000, 144.000000)"/>
                    <path fill="#FFFEFD" d="M3 5.888L18.538 1 19 1.139 3.523 6zM6 6.888L21.538 2 22 2.139 6.523 7z" transform="translate(-242.000000, -192.000000) translate(242.000000, 192.000000) translate(207.000000, 144.000000)"/>
                    <path fill="#69013B" d="M9 7.888L24.538 3 25 3.139 17.059 5.633 9.523 8zM14 9.888L29.538 5 30 5.139 22.059 7.633 14.523 10zM12 8.888L27.538 4 28 4.139 20.059 6.633 12.523 9zM16 10.888L31.538 6 32 6.139 24.059 8.633 16.523 11zM21 11.888L36.538 7 37 7.139 29.059 9.633 21.523 12zM24 13.888L39.538 9 40 9.139 32.059 11.633 24.523 14zM28 14.888L43.538 10 44 10.139 36.059 12.633 28.523 15zM19 11.888L34.538 7 35 7.139 27.059 9.633 19.523 12z" transform="translate(-242.000000, -192.000000) translate(242.000000, 192.000000) translate(207.000000, 144.000000)"/>
                </g>
                <g>
                    <path fill="#69013B" d="M104.51.003H14.304C4.768.003 0 6.795 0 20.38c0 13.584 4.768 20.376 14.305 20.376h90.204V.003z" transform="translate(-242.000000, -192.000000) translate(242.000000, 192.000000) translate(33.000000, 233.000000)"/>
                    <path fill="url(#lpdnodrzta)" d="M107.362.003C97.742-.166 92.93 6.814 92.93 20.942s4.81 20.733 14.43 19.814h145.061V37.77h-1.814l-25.392-18.382 25.392-16.134h2.302V.003H107.362z" transform="translate(-242.000000, -192.000000) translate(242.000000, 192.000000) translate(33.000000, 233.000000)"/>
                    <path fill="#FFFEFD" d="M109.49 3.131h140.852c-4.253 12.914-4.253 24.507 0 34.78h-140.93c-9.301 0-13.951-5.797-13.951-17.39s4.676-17.39 14.029-17.39z" transform="translate(-242.000000, -192.000000) translate(242.000000, 192.000000) translate(33.000000, 233.000000)"/>
                    <path fill="#898989" d="M107.538 3.131c-8.792 0-12.817 6.492-12.077 19.476 3.652-7.383 10.675-12.022 21.069-13.915 10.394-1.893 35.9-3.747 76.517-5.56h-85.509z" transform="translate(-242.000000, -192.000000) translate(242.000000, 192.000000) translate(33.000000, 233.000000)"/>
                </g>
                <g>
                    <path fill="#ECDBE2" d="M0 26.829L34.959 0 68.864 28.964 87 44.456 51.041 74z" transform="translate(-242.000000, -192.000000) translate(242.000000, 192.000000) translate(178.000000, 196.000000)"/>
                    <path fill="#FFFEFD" d="M6 26.509L34.163 5 35 5.613 6.948 27zM11 30.509L39.163 9 40 9.613 11.948 31zM16 34.509L44.163 13 45 13.613 30.607 24.587 16.948 35z" transform="translate(-242.000000, -192.000000) translate(242.000000, 192.000000) translate(178.000000, 196.000000)"/>
                    <path fill="#69013B" d="M24 41.509L52.163 20 53 20.613 38.607 31.587 24.948 42zM21 38.509L49.163 17 50 17.613 35.607 28.587 21.948 39zM29 46.509L57.163 25 58 25.613 43.607 36.587 29.948 47zM37 53.509L65.163 32 66 32.613 51.607 43.587 37.948 54zM42 59.509L70.163 38 71 38.613 56.607 49.587 42.948 60zM49 65.509L77.163 44 78 44.613 63.607 55.587 49.948 66zM34 50.509L62.163 29 63 29.613 48.607 40.587 34.948 51z" transform="translate(-242.000000, -192.000000) translate(242.000000, 192.000000) translate(178.000000, 196.000000)"/>
                </g>
                <g>
                    <path fill="#ECDBE2" d="M0 26.829L34.959 0 68.864 28.964 87 44.456 51.041 74z" transform="translate(-242.000000, -192.000000) translate(242.000000, 192.000000) translate(91.000000, 199.000000)"/>
                    <path fill="#69013B" d="M6 26.509L34.163 5 35 5.613 6.948 27zM11 30.509L39.163 9 40 9.613 11.948 31zM16 34.509L44.163 13 45 13.613 30.607 24.587 16.948 35zM24 41.509L52.163 20 53 20.613 38.607 31.587 24.948 42zM21 38.509L49.163 17 50 17.613 35.607 28.587 21.948 39zM29 46.509L57.163 25 58 25.613 43.607 36.587 29.948 47zM37 53.509L65.163 32 66 32.613 51.607 43.587 37.948 54zM42 59.509L70.163 38 71 38.613 56.607 49.587 42.948 60zM49 65.509L77.163 44 78 44.613 63.607 55.587 49.948 66zM34 50.509L62.163 29 63 29.613 48.607 40.587 34.948 51z" transform="translate(-242.000000, -192.000000) translate(242.000000, 192.000000) translate(91.000000, 199.000000)"/>
                </g>
                <g>
                    <path fill="#69013B" d="M79.538.288H10.887C3.629.288 0 7.192 0 21s3.629 20.712 10.887 20.712h68.65V.288z" transform="translate(-242.000000, -192.000000) translate(242.000000, 192.000000) translate(174.440708, 210.039540) scale(-1, 1) translate(-174.440708, -210.039540) translate(78.083248, 189.183375)"/>
                    <path fill="url(#va4hlu40xb)" d="M81.966.003c-7.32-.172-10.98 6.956-10.98 21.386s3.66 21.176 10.98 20.237h110.378v-3.05h-1.38l-19.322-18.774 19.321-16.479h1.752V.003H81.965z" transform="translate(-242.000000, -192.000000) translate(242.000000, 192.000000) translate(174.440708, 210.039540) scale(-1, 1) translate(-174.440708, -210.039540) translate(78.083248, 189.183375)"/>
                    <path fill="#FFFEFD" d="M83.36 3.452h107.074c-3.232 13.138-3.232 24.932 0 35.384H83.3c-7.07 0-10.604-5.898-10.604-17.692 0-11.795 3.555-17.692 10.664-17.692z" transform="translate(-242.000000, -192.000000) translate(242.000000, 192.000000) translate(174.440708, 210.039540) scale(-1, 1) translate(-174.440708, -210.039540) translate(78.083248, 189.183375)"/>
                    <path fill="#898989" d="M81.962 3.164c-6.698 0-9.765 6.617-9.2 19.85 2.781-7.525 8.131-12.253 16.05-14.182 7.918-1.93 27.348-3.819 58.29-5.668h-65.14z" transform="translate(-242.000000, -192.000000) translate(242.000000, 192.000000) translate(174.440708, 210.039540) scale(-1, 1) translate(-174.440708, -210.039540) translate(78.083248, 189.183375)"/>
                </g>
                <g>
                    <path fill="#ECDBE2" d="M0 26.829L34.959 0 68.864 28.964 87 44.456 51.041 74z" transform="translate(-242.000000, -192.000000) translate(242.000000, 192.000000) translate(42.000000, 145.000000)"/>
                    <path fill="#FFFEFD" d="M6 26.509L34.163 5 35 5.613 6.948 27zM11 30.509L39.163 9 40 9.613 11.948 31zM16 34.509L44.163 13 45 13.613 30.607 24.587 16.948 35zM24 41.509L52.163 20 53 20.613 38.607 31.587 24.948 42zM21 38.509L49.163 17 50 17.613 35.607 28.587 21.948 39z" transform="translate(-242.000000, -192.000000) translate(242.000000, 192.000000) translate(42.000000, 145.000000)"/>
                    <path fill="#69013B" d="M29 46.509L57.163 25 58 25.613 43.607 36.587 29.948 47zM37 53.509L65.163 32 66 32.613 51.607 43.587 37.948 54zM42 59.509L70.163 38 71 38.613 56.607 49.587 42.948 60zM49 65.509L77.163 44 78 44.613 63.607 55.587 49.948 66zM34 50.509L62.163 29 63 29.613 48.607 40.587 34.948 51z" transform="translate(-242.000000, -192.000000) translate(242.000000, 192.000000) translate(42.000000, 145.000000)"/>
                </g>
                <g>
                    <path fill="#69013B" d="M79.538.288H10.887C3.629.288 0 7.192 0 21s3.629 20.712 10.887 20.712h68.65V.288z" transform="translate(-242.000000, -192.000000) translate(242.000000, 192.000000) translate(33.083248, 145.211413)"/>
                    <path fill="url(#va4hlu40xb)" d="M81.966.003c-7.32-.172-10.98 6.956-10.98 21.386s3.66 21.176 10.98 20.237h110.378v-3.05h-1.38l-19.322-18.774 19.321-16.479h1.752V.003H81.965z" transform="translate(-242.000000, -192.000000) translate(242.000000, 192.000000) translate(33.083248, 145.211413)"/>
                    <path fill="#FFFEFD" d="M83.386 3.452h107.333c-3.24 13.138-3.24 24.932 0 35.384H83.326c-7.087 0-10.63-5.898-10.63-17.692 0-11.795 3.563-17.692 10.69-17.692z" transform="translate(-242.000000, -192.000000) translate(242.000000, 192.000000) translate(33.083248, 145.211413)"/>
                    <path fill="#898989" d="M81.926 3.164c-6.672 0-9.727 6.617-9.165 19.85 2.772-7.525 8.101-12.253 15.989-14.182 7.888-1.93 27.243-3.819 58.067-5.668h-64.89z" transform="translate(-242.000000, -192.000000) translate(242.000000, 192.000000) translate(33.083248, 145.211413)"/>
                </g>
                <g>
                    <path fill="#ECDBE2" d="M0 26.829L34.959 0 68.864 28.964 87 44.456 51.041 74z" transform="translate(-242.000000, -192.000000) translate(242.000000, 192.000000) translate(126.000000, 107.000000)"/>
                    <path fill="#FFFEFD" d="M6 26.509L34.163 5 35 5.613 6.948 27zM11 30.509L39.163 9 40 9.613 11.948 31z" transform="translate(-242.000000, -192.000000) translate(242.000000, 192.000000) translate(126.000000, 107.000000)"/>
                    <path fill="#69013B" d="M16 34.509L44.163 13 45 13.613 30.607 24.587 16.948 35zM24 41.509L52.163 20 53 20.613 38.607 31.587 24.948 42zM21 38.509L49.163 17 50 17.613 35.607 28.587 21.948 39zM29 46.509L57.163 25 58 25.613 43.607 36.587 29.948 47zM37 53.509L65.163 32 66 32.613 51.607 43.587 37.948 54zM42 59.509L70.163 38 71 38.613 56.607 49.587 42.948 60zM49 65.509L77.163 44 78 44.613 63.607 55.587 49.948 66zM34 50.509L62.163 29 63 29.613 48.607 40.587 34.948 51z" transform="translate(-242.000000, -192.000000) translate(242.000000, 192.000000) translate(126.000000, 107.000000)"/>
                </g>
                <g>
                    <path fill="#ECDBE2" d="M0 10.876L34.959 0 68.864 11.742 87 18.023 51.041 30z" transform="translate(-242.000000, -192.000000) translate(242.000000, 192.000000) translate(129.000000, 45.000000)"/>
                    <path fill="#FFFEFD" d="M6 10.799L34.163 2 35 2.251 6.948 11zM11 12.799L39.163 4 40 4.251 11.948 13z" transform="translate(-242.000000, -192.000000) translate(242.000000, 192.000000) translate(129.000000, 45.000000)"/>
                    <path fill="#69013B" d="M16 13.799L44.163 5 45 5.251 30.607 9.74 16.948 14zM24 16.799L52.163 8 53 8.251 38.607 12.74 24.948 17zM21 15.799L49.163 7 50 7.251 35.607 11.74 21.948 16zM29 18.799L57.163 10 58 10.251 43.607 14.74 29.948 19zM37 21.799L65.163 13 66 13.251 51.607 17.74 37.948 22zM42 23.799L70.163 15 71 15.251 56.607 19.74 42.948 24zM49 26.799L77.163 18 78 18.251 63.607 22.74 49.948 27zM34 20.799L62.163 12 63 12.251 48.607 16.74 34.948 21z" transform="translate(-242.000000, -192.000000) translate(242.000000, 192.000000) translate(129.000000, 45.000000)"/>
                </g>
                <g>
                    <path fill="#ECDBE2" d="M0 7.251L23.306 0 45.91 7.828 58 12.015 34.027 20z" transform="translate(-242.000000, -192.000000) translate(242.000000, 192.000000) translate(227.000000, 54.000000)"/>
                    <path fill="#FFFEFD" d="M4 6.866L22.452 1 23 1.167 4.621 7zM7 8.866L25.452 3 26 3.167 7.621 9z" transform="translate(-242.000000, -192.000000) translate(242.000000, 192.000000) translate(227.000000, 54.000000)"/>
                    <path fill="#69013B" d="M11 8.866L29.452 3 30 3.167 20.57 6.16 11.621 9zM16 10.866L34.452 5 35 5.167 25.57 8.16 16.621 11zM14 10.866L32.452 5 33 5.167 23.57 8.16 14.621 11zM19 12.866L37.452 7 38 7.167 28.57 10.16 19.621 13zM25 14.866L43.452 9 44 9.167 34.57 12.16 25.621 15zM28 15.866L46.452 10 47 10.167 37.57 13.16 28.621 16zM33 17.866L51.452 12 52 12.167 42.57 15.16 33.621 18zM23 13.866L41.452 8 42 8.167 32.57 11.16 23.621 14z" transform="translate(-242.000000, -192.000000) translate(242.000000, 192.000000) translate(227.000000, 54.000000)"/>
                </g>
                <g opacity=".397">
                    <path fill="#ECDBE2" d="M0 7.251L23.306 0 45.91 7.828 58 12.015 34.027 20z" transform="translate(-242.000000, -192.000000) translate(242.000000, 192.000000) translate(262.000000, 82.000000)"/>
                    <path fill="#FFFEFD" d="M4 6.866L22.452 1 23 1.167 4.621 7zM7 8.866L25.452 3 26 3.167 7.621 9z" transform="translate(-242.000000, -192.000000) translate(242.000000, 192.000000) translate(262.000000, 82.000000)"/>
                    <path fill="#69013B" d="M11 8.866L29.452 3 30 3.167 20.57 6.16 11.621 9zM16 10.866L34.452 5 35 5.167 25.57 8.16 16.621 11zM14 10.866L32.452 5 33 5.167 23.57 8.16 14.621 11zM19 12.866L37.452 7 38 7.167 28.57 10.16 19.621 13zM25 14.866L43.452 9 44 9.167 34.57 12.16 25.621 15zM28 15.866L46.452 10 47 10.167 37.57 13.16 28.621 16zM33 17.866L51.452 12 52 12.167 42.57 15.16 33.621 18zM23 13.866L41.452 8 42 8.167 32.57 11.16 23.621 14z" transform="translate(-242.000000, -192.000000) translate(242.000000, 192.000000) translate(262.000000, 82.000000)"/>
                </g>
                <g opacity=".729">
                    <path fill="#ECDBE2" d="M0 8.339L26.923 0 53.033 9.002 67 13.817 39.307 23z" transform="translate(-242.000000, -192.000000) translate(242.000000, 192.000000) translate(35.000000, 54.000000)"/>
                    <path fill="#FFFEFD" d="M5 7.844L26.365 1 27 1.195 5.719 8zM9 9.844L30.365 3 31 3.195 9.719 10z" transform="translate(-242.000000, -192.000000) translate(242.000000, 192.000000) translate(35.000000, 54.000000)"/>
                    <path fill="#69013B" d="M12 10.844L33.365 4 34 4.195 23.081 7.687 12.719 11zM19 12.844L40.365 6 41 6.195 30.081 9.687 19.719 13zM16 11.844L37.365 5 38 5.195 27.081 8.687 16.719 12zM22 14.844L43.365 8 44 8.195 33.081 11.687 22.719 15zM28 16.844L49.365 10 50 10.195 39.081 13.687 28.719 17zM32 17.844L53.365 11 54 11.195 43.081 14.687 32.719 18zM38 20.844L59.365 14 60 14.195 49.081 17.687 38.719 21zM26 15.844L47.365 9 48 9.195 37.081 12.687 26.719 16z" transform="translate(-242.000000, -192.000000) translate(242.000000, 192.000000) translate(35.000000, 54.000000)"/>
                </g>
                <g>
                    <path fill="#ECDBE2" d="M0 8.339L26.923 0 53.033 9.002 67 13.817 39.307 23z" transform="translate(-242.000000, -192.000000) translate(242.000000, 192.000000) translate(146.000000, 91.000000)"/>
                    <path fill="#FFFEFD" d="M5 7.844L26.365 1 27 1.195 5.719 8zM9 9.844L30.365 3 31 3.195 9.719 10z" transform="translate(-242.000000, -192.000000) translate(242.000000, 192.000000) translate(146.000000, 91.000000)"/>
                    <path fill="#69013B" d="M12 10.844L33.365 4 34 4.195 23.081 7.687 12.719 11zM19 12.844L40.365 6 41 6.195 30.081 9.687 19.719 13zM16 11.844L37.365 5 38 5.195 27.081 8.687 16.719 12zM22 14.844L43.365 8 44 8.195 33.081 11.687 22.719 15zM28 16.844L49.365 10 50 10.195 39.081 13.687 28.719 17zM32 17.844L53.365 11 54 11.195 43.081 14.687 32.719 18zM38 20.844L59.365 14 60 14.195 49.081 17.687 38.719 21zM26 15.844L47.365 9 48 9.195 37.081 12.687 26.719 16z" transform="translate(-242.000000, -192.000000) translate(242.000000, 192.000000) translate(146.000000, 91.000000)"/>
                </g>
                <g opacity=".492">
                    <path fill="#ECDBE2" d="M0 7.976L25.717 0 50.659 8.611 64 13.217 37.547 22z" transform="translate(-242.000000, -192.000000) translate(242.000000, 192.000000) translate(222.000000, 0.000000)"/>
                    <path fill="#FFFEFD" d="M5 7.844L25.394 1 26 1.195 5.686 8zM8 9.844L28.394 3 29 3.195 8.686 10z" transform="translate(-242.000000, -192.000000) translate(242.000000, 192.000000) translate(222.000000, 0.000000)"/>
                    <path fill="#69013B" d="M12 9.844L32.394 3 33 3.195 22.577 6.687 12.686 10zM18 12.844L38.394 6 39 6.195 28.577 9.687 18.686 13zM16 11.844L36.394 5 37 5.195 26.577 8.687 16.686 12zM21 13.844L41.394 7 42 7.195 31.577 10.687 21.686 14zM27 15.844L47.394 9 48 9.195 37.577 12.687 27.686 16zM31 17.844L51.394 11 52 11.195 41.577 14.687 31.686 18zM36 19.844L56.394 13 57 13.195 46.577 16.687 36.686 20zM25 15.844L45.394 9 46 9.195 35.577 12.687 25.686 16z" transform="translate(-242.000000, -192.000000) translate(242.000000, 192.000000) translate(222.000000, 0.000000)"/>
                </g>
                <g>
                    <path fill="#ECDBE2" d="M0 7.976L25.717 0 50.659 8.611 64 13.217 37.547 22z" transform="translate(-242.000000, -192.000000) translate(242.000000, 192.000000) translate(21.000000, 107.000000)"/>
                    <path fill="#FFFEFD" d="M5 7.844L25.394 1 26 1.195 5.686 8zM8 9.844L28.394 3 29 3.195 8.686 10z" transform="translate(-242.000000, -192.000000) translate(242.000000, 192.000000) translate(21.000000, 107.000000)"/>
                    <path fill="#69013B" d="M12 9.844L32.394 3 33 3.195 22.577 6.687 12.686 10zM18 12.844L38.394 6 39 6.195 28.577 9.687 18.686 13zM16 11.844L36.394 5 37 5.195 26.577 8.687 16.686 12zM22 13.844L42.394 7 43 7.195 32.577 10.687 22.686 14zM27 15.844L47.394 9 48 9.195 37.577 12.687 27.686 16zM31 17.844L51.394 11 52 11.195 41.577 14.687 31.686 18zM36 19.844L56.394 13 57 13.195 46.577 16.687 36.686 20zM25 15.844L45.394 9 46 9.195 35.577 12.687 25.686 16z" transform="translate(-242.000000, -192.000000) translate(242.000000, 192.000000) translate(21.000000, 107.000000)"/>
                </g>
                <g opacity=".469">
                    <path fill="#ECDBE2" d="M0 6.163L19.69 0 38.786 6.654 49 10.213 28.747 17z" transform="translate(-242.000000, -192.000000) translate(242.000000, 192.000000) translate(42.000000, 5.000000)"/>
                    <path fill="#FFFEFD" d="M3 5.888L18.538 1 19 1.139 3.523 6zM6 6.888L21.538 2 22 2.139 6.523 7z" transform="translate(-242.000000, -192.000000) translate(242.000000, 192.000000) translate(42.000000, 5.000000)"/>
                    <path fill="#69013B" d="M9 7.888L24.538 3 25 3.139 17.059 5.633 9.523 8zM14 9.888L29.538 5 30 5.139 22.059 7.633 14.523 10zM12 8.888L27.538 4 28 4.139 20.059 6.633 12.523 9zM16 10.888L31.538 6 32 6.139 24.059 8.633 16.523 11zM21 11.888L36.538 7 37 7.139 29.059 9.633 21.523 12zM24 13.888L39.538 9 40 9.139 32.059 11.633 24.523 14zM28 14.888L43.538 10 44 10.139 36.059 12.633 28.523 15zM19 11.888L34.538 7 35 7.139 27.059 9.633 19.523 12z" transform="translate(-242.000000, -192.000000) translate(242.000000, 192.000000) translate(42.000000, 5.000000)"/>
                </g>
                <g opacity=".469">
                    <path fill="#ECDBE2" d="M0 6.163L19.69 0 38.786 6.654 49 10.213 28.747 17z" transform="translate(-242.000000, -192.000000) translate(242.000000, 192.000000) translate(170.000000, 22.000000)"/>
                    <path fill="#FFFEFD" d="M3 5.888L18.538 1 19 1.139 3.523 6zM6 6.888L21.538 2 22 2.139 6.523 7z" transform="translate(-242.000000, -192.000000) translate(242.000000, 192.000000) translate(170.000000, 22.000000)"/>
                    <path fill="#69013B" d="M9 7.888L24.538 3 25 3.139 17.059 5.633 9.523 8zM14 9.888L29.538 5 30 5.139 22.059 7.633 14.523 10zM12 8.888L27.538 4 28 4.139 20.059 6.633 12.523 9zM16 10.888L31.538 6 32 6.139 24.059 8.633 16.523 11zM21 11.888L36.538 7 37 7.139 29.059 9.633 21.523 12zM24 13.888L39.538 9 40 9.139 32.059 11.633 24.523 14zM28 14.888L43.538 10 44 10.139 36.059 12.633 28.523 15zM19 11.888L34.538 7 35 7.139 27.059 9.633 19.523 12z" transform="translate(-242.000000, -192.000000) translate(242.000000, 192.000000) translate(170.000000, 22.000000)"/>
                </g>
                <g opacity=".469">
                    <path fill="#ECDBE2" d="M0 6.163L19.69 0 38.786 6.654 49 10.213 28.747 17z" transform="translate(-242.000000, -192.000000) translate(242.000000, 192.000000) translate(69.000000, 38.000000)"/>
                    <path fill="#FFFEFD" d="M3 5.888L18.538 1 19 1.139 3.523 6zM6 6.888L21.538 2 22 2.139 6.523 7z" transform="translate(-242.000000, -192.000000) translate(242.000000, 192.000000) translate(69.000000, 38.000000)"/>
                    <path fill="#69013B" d="M9 7.888L24.538 3 25 3.139 17.059 5.633 9.523 8zM14 9.888L29.538 5 30 5.139 22.059 7.633 14.523 10zM12 8.888L27.538 4 28 4.139 20.059 6.633 12.523 9zM16 10.888L31.538 6 32 6.139 24.059 8.633 16.523 11zM21 11.888L36.538 7 37 7.139 29.059 9.633 21.523 12zM24 13.888L39.538 9 40 9.139 32.059 11.633 24.523 14zM28 14.888L43.538 10 44 10.139 36.059 12.633 28.523 15zM19 11.888L34.538 7 35 7.139 27.059 9.633 19.523 12z" transform="translate(-242.000000, -192.000000) translate(242.000000, 192.000000) translate(69.000000, 38.000000)"/>
                </g>
                <g opacity=".343">
                    <path fill="#ECDBE2" d="M0 6.163L19.69 0 38.786 6.654 49 10.213 28.747 17z" transform="translate(-242.000000, -192.000000) translate(242.000000, 192.000000) translate(0.000000, 208.000000)"/>
                    <path fill="#FFFEFD" d="M3 5.888L18.538 1 19 1.139 3.523 6zM6 6.888L21.538 2 22 2.139 6.523 7z" transform="translate(-242.000000, -192.000000) translate(242.000000, 192.000000) translate(0.000000, 208.000000)"/>
                    <path fill="#69013B" d="M9 7.888L24.538 3 25 3.139 17.059 5.633 9.523 8zM14 9.888L29.538 5 30 5.139 22.059 7.633 14.523 10zM12 8.888L27.538 4 28 4.139 20.059 6.633 12.523 9zM16 10.888L31.538 6 32 6.139 24.059 8.633 16.523 11zM21 11.888L36.538 7 37 7.139 29.059 9.633 21.523 12zM24 13.888L39.538 9 40 9.139 32.059 11.633 24.523 14zM28 14.888L43.538 10 44 10.139 36.059 12.633 28.523 15zM19 11.888L34.538 7 35 7.139 27.059 9.633 19.523 12z" transform="translate(-242.000000, -192.000000) translate(242.000000, 192.000000) translate(0.000000, 208.000000)"/>
                </g>
                <g opacity=".504">
                    <path fill="#ECDBE2" d="M0 6.163L19.69 0 38.786 6.654 49 10.213 28.747 17z" transform="translate(-242.000000, -192.000000) translate(242.000000, 192.000000) translate(0.000000, 32.000000)"/>
                    <path fill="#FFFEFD" d="M3 5.888L18.538 1 19 1.139 3.523 6zM6 6.888L21.538 2 22 2.139 6.523 7z" transform="translate(-242.000000, -192.000000) translate(242.000000, 192.000000) translate(0.000000, 32.000000)"/>
                    <path fill="#69013B" d="M9 7.888L24.538 3 25 3.139 17.059 5.633 9.523 8zM14 9.888L29.538 5 30 5.139 22.059 7.633 14.523 10zM12 8.888L27.538 4 28 4.139 20.059 6.633 12.523 9zM16 10.888L31.538 6 32 6.139 24.059 8.633 16.523 11zM21 11.888L36.538 7 37 7.139 29.059 9.633 21.523 12zM24 13.888L39.538 9 40 9.139 32.059 11.633 24.523 14zM28 14.888L43.538 10 44 10.139 36.059 12.633 28.523 15zM19 11.888L34.538 7 35 7.139 27.059 9.633 19.523 12z" transform="translate(-242.000000, -192.000000) translate(242.000000, 192.000000) translate(0.000000, 32.000000)"/>
                </g>
                <g>
                    <path fill="#69013B" d="M80 0H10.95C3.65 0 0 7 0 21s3.65 21 10.95 21H80V0z" transform="translate(-242.000000, -192.000000) translate(242.000000, 192.000000) translate(182.500000, 119.000000) scale(-1, 1) translate(-182.500000, -119.000000) translate(86.000000, 98.000000)"/>
                    <path fill="url(#52uy5zmm4c)" d="M82.005.003C74.668-.17 71 7.007 71 21.537c0 14.529 3.668 21.321 11.005 20.377h110.623v-3.071h-1.383L171.88 19.939l19.364-16.593H193V.003H82.005z" transform="translate(-242.000000, -192.000000) translate(242.000000, 192.000000) translate(182.500000, 119.000000) scale(-1, 1) translate(-182.500000, -119.000000) translate(86.000000, 98.000000)"/>
                    <path fill="#FFFEFD" d="M82.779 3H191c-3.267 13.367-3.267 25.367 0 36H82.718C75.573 39 72 33 72 21S75.593 3 82.779 3z" transform="translate(-242.000000, -192.000000) translate(242.000000, 192.000000) translate(182.500000, 119.000000) scale(-1, 1) translate(-182.500000, -119.000000) translate(86.000000, 98.000000)"/>
                    <path fill="#898989" d="M81.34 3c-6.751 0-9.842 6.667-9.274 20 2.804-7.582 8.197-12.346 16.178-14.29C96.226 6.766 115.811 4.863 147 3H81.34z" transform="translate(-242.000000, -192.000000) translate(242.000000, 192.000000) translate(182.500000, 119.000000) scale(-1, 1) translate(-182.500000, -119.000000) translate(86.000000, 98.000000)"/>
                </g>
                <g>
                    <path fill="#ECDBE2" d="M0 10.876L34.959 0 68.864 11.742 87 18.023 51.041 30z" transform="translate(-242.000000, -192.000000) translate(242.000000, 192.000000) translate(109.000000, 77.000000)"/>
                    <path fill="#FFFEFD" d="M6 10.799L34.163 2 35 2.251 6.948 11zM11 12.799L39.163 4 40 4.251 11.948 13z" transform="translate(-242.000000, -192.000000) translate(242.000000, 192.000000) translate(109.000000, 77.000000)"/>
                    <path fill="#69013B" d="M16 13.799L44.163 5 45 5.251 30.607 9.74 16.948 14zM24 16.799L52.163 8 53 8.251 38.607 12.74 24.948 17zM21 15.799L49.163 7 50 7.251 35.607 11.74 21.948 16zM29 18.799L57.163 10 58 10.251 43.607 14.74 29.948 19zM37 21.799L65.163 13 66 13.251 51.607 17.74 37.948 22zM42 23.799L70.163 15 71 15.251 56.607 19.74 42.948 24zM49 26.799L77.163 18 78 18.251 63.607 22.74 49.948 27zM34 20.799L62.163 12 63 12.251 48.607 16.74 34.948 21z" transform="translate(-242.000000, -192.000000) translate(242.000000, 192.000000) translate(109.000000, 77.000000)"/>
                </g>
            </g>
        </g>
    </g>
</svg>
