<svg xmlns="http://www.w3.org/2000/svg" width="20" height="20" viewBox="0 0 20 20">
    <defs>
        <filter id="jbu0jn5tia" color-interpolation-filters="auto">
            <feColorMatrix in="SourceGraphic" values="0 0 0 0 0.074510 0 0 0 0 0.074510 0 0 0 0 0.074510 0 0 0 1.000000 0"/>
        </filter>
    </defs>
    <g fill="none" fill-rule="evenodd">
        <g>
            <g>
                <g filter="url(#jbu0jn5tia)" transform="translate(-273.000000, -520.000000) translate(15.000000, 295.000000) translate(0.000000, 190.000000)">
                    <g>
                        <path d="M0 0L20 0 20 20 0 20z" transform="translate(258.000000, 35.000000)"/>
                        <path fill="#131313" fill-rule="nonzero" d="M5.767 4.444c.051.765.18 1.512.386 2.224l-1.03 1.03c-.352-1.03-.576-2.12-.653-3.254h1.297m8.465 10.32c.73.207 1.477.335 2.233.387v1.28c-1.134-.078-2.224-.301-3.263-.645l1.03-1.021M6.591 2.727H3.586c-.472 0-.859.387-.859.859 0 8.062 6.534 14.596 14.596 14.596.472 0 .859-.387.859-.859v-2.996c0-.472-.387-.859-.859-.859-1.064 0-2.103-.172-3.065-.49-.086-.034-.18-.042-.266-.042-.223 0-.438.086-.61.249l-1.889 1.889c-2.43-1.245-4.421-3.229-5.658-5.658l1.89-1.89c.24-.24.308-.574.214-.875-.318-.962-.49-1.992-.49-3.065 0-.472-.386-.859-.858-.859z" transform="translate(258.000000, 35.000000)"/>
                    </g>
                </g>
            </g>
        </g>
    </g>
</svg>
