
<svg xmlns="http://www.w3.org/2000/svg" width="18" height="18" viewBox="0 0 24 24">
    <defs>
        <filter id="f7q5ty0c0a" color-interpolation-filters="auto">
            <feColorMatrix in="SourceGraphic" values="0 0 0 0 0.411765 0 0 0 0 0.003922 0 0 0 0 0.231373 0 0 0 1.000000 0"/>
        </filter>
    </defs>
    <g fill="none" fill-rule="evenodd">
        <g>
            <g filter="url(#f7q5ty0c0a)" transform="translate(-774.000000, -567.000000) translate(774.000000, 567.000000)">
                <path d="M0 0L24 0 24 24 0 24z"/>
                <path fill="#131313" fill-rule="nonzero" d="M19 3H5c-1.1 0-2 .9-2 2v14c0 1.1.9 2 2 2h14c1.1 0 2-.9 2-2V5c0-1.1-.9-2-2-2zm0 16H5V5h14v14zM17.99 9l-1.41-1.42-6.59 6.59-2.58-2.57-1.42 1.41 4 3.99 8-8z"/>
            </g>
        </g>
    </g>
</svg>

