
<svg xmlns="http://www.w3.org/2000/svg" xmlns:xlink="http://www.w3.org/1999/xlink" width="300" height="234" viewBox="0 0 320 236">
    <defs>
        <filter id="ucve9dleua" width="109.2%" height="114.5%" x="-4.6%" y="-7.3%" filterUnits="objectBoundingBox">
            <feOffset dy="2" in="SourceAlpha" result="shadowOffsetOuter1"/>
            <feGaussianBlur in="shadowOffsetOuter1" result="shadowBlurOuter1" stdDeviation="2"/>
            <feColorMatrix in="shadowBlurOuter1" result="shadowMatrixOuter1" values="0 0 0 0 0.411764706 0 0 0 0 0.00392156863 0 0 0 0 0.231372549 0 0 0 0.368521737 0"/>
            <feMerge>
                <feMergeNode in="shadowMatrixOuter1"/>
                <feMergeNode in="SourceGraphic"/>
            </feMerge>
        </filter>
        <filter id="plzei5kx0b" color-interpolation-filters="auto">
            <feColorMatrix in="SourceGraphic" values="0 0 0 0 0.074510 0 0 0 0 0.074510 0 0 0 0 0.074510 0 0 0 1.000000 0"/>
        </filter>
        <filter id="082cnxdehc" color-interpolation-filters="auto">
            <feColorMatrix in="SourceGraphic" values="0 0 0 0 0.929412 0 0 0 0 0.878431 0 0 0 0 0.901961 0 0 0 1.000000 0"/>
        </filter>
        <filter id="ttnntifxtf" width="141.1%" height="9703.6%" x="-20.5%" y="-4801.8%" filterUnits="objectBoundingBox">
            <feGaussianBlur in="SourceGraphic" stdDeviation="4"/>
        </filter>
        <filter id="wq7y47xgog" width="132.6%" height="9743.9%" x="-16.3%" y="-4821.9%" filterUnits="objectBoundingBox">
            <feGaussianBlur in="SourceGraphic" stdDeviation="4"/>
        </filter>
        <filter id="nmi4x6ie3h" width="126.5%" height="9765%" x="-13.3%" y="-4832.5%" filterUnits="objectBoundingBox">
            <feGaussianBlur in="SourceGraphic" stdDeviation="4"/>
        </filter>
        <path id="krabcw5tcd" d="M0 0H112V80H0z"/>
    </defs>
    <g fill="none" fill-rule="evenodd">
        <g>
            <g>
                <g filter="url(#ucve9dleua)" transform="translate(-212.000000, -183.000000) translate(212.000000, 192.000000) translate(30.000000, 0.000000)">
                    <rect width="260" height="165" fill="#DDB2CA" rx="4"/>
                    <path fill="#F7F2F5" d="M8 8H252V158H8z"/>
                    <g transform="translate(141.000000, 14.000000)">
                        <g filter="url(#plzei5kx0b)">
                            <g>
                                <path fill="#000" fill-rule="nonzero" d="M16.92 45.596c-.116 1.384.808 8.709 1.284 11.58.227 1.361.85 3.578.626 4.755-.32 1.64-.412 3.764-.236 5 .11.75.46 4.213-.04 5.48-.261.663-.74 4.066-.74 4.066-1.25 3.206-.545 3.049-.545 3.049.387.482 1.05.037 1.05.037.504.328.853-.077.853-.077.433.364.938-.045.938-.045.544.287 1.049-.242 1.049-.242.312.16.389-.043.389-.043.937-.06-.523-3.111-.523-3.111-.35-2.74.347-4.265.347-4.265 2.283-6.882 2.399-8.709 1.486-11.302-.257-.75-.322-1.046-.204-1.37.274-.751.074-3.769.408-4.967.643-2.311 1.278-8.172 1.609-10.907.444-3.684-1.575-8.623-1.575-8.623-.442-2.01.206-9.172.206-9.172.906 1.432.87 3.96.87 3.96-.143 2.652 2.108 6.704 2.108 6.704 1.081 1.674 1.49 3.263 1.49 3.38 0 .483-.103 1.651-.103 1.651l.041 1.017c.019.26.162 1.15.14 1.582-.17 2.652.245 2.153.245 2.153.35 0 .734-2.134.734-2.134 0 .55-.132 2.198.16 2.82.35.741.606-.128.61-.302.093-3.377.293-2.492.293-2.492.194 2.74.433 3.358.86 3.144.325-.157.029-3.288.029-3.288.555 1.86.976 2.156.976 2.156.917.654.35-1.153.223-1.511-.678-1.902-.7-2.56-.7-2.56.848 1.708 1.487 1.645 1.487 1.645.827-.269-.722-2.688-1.63-3.848-.463-.59-1.06-1.381-1.234-1.85-.282-.796-.496-3.354-.496-3.354-.085-3.017-.82-4.328-.82-4.328-1.254-2.042-1.49-5.85-1.49-5.85l-.056-6.43c-.44-4.387-3.619-4.418-3.619-4.418-3.213-.487-3.66-1.542-3.66-1.542-.68-.996-.292-2.905-.292-2.905.565-.466.783-1.706.783-1.706.937-.731.891-1.8.458-1.789-.347.01-.268-.283-.268-.283C21.027.246 16.822 0 16.822 0h-.642s-4.206.246-3.62 5.06c0 0 .078.292-.272.283-.432-.012-.473 1.058.462 1.789 0 0 .217 1.239.782 1.706 0 0 .39 1.91-.291 2.905 0 0-.446 1.055-3.661 1.541 0 0-3.184.032-3.617 4.418l-.06 6.43s-.232 3.809-1.492 5.85c0 0-.73 1.312-.815 4.33 0 0-.214 2.557-.495 3.352-.172.467-.769 1.258-1.235 1.851C.95 40.672-.59 43.087.234 43.362c0 0 .643.064 1.487-1.645 0 0-.018.654-.695 2.56-.133.354-.7 2.162.218 1.512 0 0 .425-.297.977-2.156 0 0-.297 3.13.033 3.288.43.215.666-.405.86-3.145 0 0 .2-.884.292 2.493.004.174.256 1.043.607.301.296-.621.163-2.266.163-2.82 0 0 .38 2.135.735 2.135 0 0 .418.5.246-2.153-.028-.434.122-1.323.14-1.582l.04-1.017s-.103-1.165-.103-1.65c0-.12.41-1.707 1.49-3.381 0 0 2.249-4.054 2.104-6.704 0 0-.031-2.528.874-3.96 0 0 .643 7.161.207 9.172 0 0-2.022 4.939-1.576 8.623.328 2.742.962 8.595 1.607 10.907.337 1.196.137 4.213.407 4.966.122.327.058.629-.203 1.37-.908 2.594-.792 4.42 1.49 11.303 0 0 .703 1.525.348 4.265 0 0-1.459 3.05-.524 3.111 0 0 .073.202.389.042 0 0 .504.53 1.05.243 0 0 .504.41.936.045 0 0 .346.404.85.077 0 0 .663.455 1.056-.038 0 0 .7.158-.545-3.048 0 0-.477-3.399-.74-4.067-.5-1.266-.147-4.736-.04-5.48.172-1.242.08-3.36-.235-4.999-.23-1.174.393-3.391.624-4.754.473-2.87 1.401-10.195 1.285-11.58l.383.136c.275 0 .448-.136.448-.136z" transform="translate(0.000000, 2.246575)"/>
                            </g>
                        </g>
                        <ellipse cx="18.857" cy="2.247" fill="#69013B" rx="2.218" ry="2.247"/>
                        <ellipse cx="27.176" cy="21.062" fill="#69013B" rx="2.218" ry="2.247"/>
                        <ellipse cx="28.84" cy="37.911" fill="#69013B" rx="2.218" ry="2.247"/>
                        <ellipse cx="9.983" cy="36.788" fill="#69013B" rx="2.218" ry="2.247"/>
                    </g>
                    <g filter="url(#082cnxdehc)">
                        <g>
                            <path fill="#D8D8D8" d="M45.936 0h62.685C109.935 0 111 1.065 111 2.38c0 1.313-1.065 2.378-2.38 2.378H45.937c-1.314 0-2.379-1.065-2.379-2.379S44.622 0 45.937 0zM45.936 8.117h62.685c1.314 0 2.379 1.065 2.379 2.38 0 1.313-1.065 2.379-2.38 2.379H45.937c-1.314 0-2.379-1.066-2.379-2.38 0-1.314 1.065-2.379 2.38-2.379zM45.936 16.234h62.685c1.314 0 2.379 1.066 2.379 2.38 0 1.314-1.065 2.379-2.38 2.379H45.937c-1.314 0-2.379-1.065-2.379-2.38 0-1.313 1.065-2.379 2.38-2.379zM45.936 24.352h62.685c1.314 0 2.379 1.065 2.379 2.379s-1.065 2.379-2.38 2.379H45.937c-1.314 0-2.379-1.065-2.379-2.38 0-1.313 1.065-2.378 2.38-2.378zM45.936 32.469h62.685c1.314 0 2.379 1.065 2.379 2.38 0 1.313-1.065 2.378-2.38 2.378H45.937c-1.314 0-2.379-1.065-2.379-2.379s1.065-2.38 2.38-2.38zM45.936 40.586h62.685c1.314 0 2.379 1.065 2.379 2.38 0 1.313-1.065 2.378-2.38 2.378H45.937c-1.314 0-2.379-1.065-2.379-2.379s1.065-2.379 2.38-2.379zM45.936 48.703h62.685c1.314 0 2.379 1.066 2.379 2.38 0 1.314-1.065 2.379-2.38 2.379H45.937c-1.314 0-2.379-1.065-2.379-2.38 0-1.313 1.065-2.379 2.38-2.379zM45.936 56.82h62.685c1.314 0 2.379 1.066 2.379 2.38 0 1.314-1.065 2.379-2.38 2.379H45.937c-1.314 0-2.379-1.065-2.379-2.38 0-1.313 1.065-2.378 2.38-2.378zM2.38 64.938h106.24c1.315 0 2.38 1.065 2.38 2.379s-1.065 2.38-2.38 2.38H2.38c-1.315 0-2.38-1.066-2.38-2.38 0-1.314 1.065-2.38 2.38-2.38zM2.38 73.055h106.24c1.315 0 2.38 1.065 2.38 2.38 0 1.313-1.065 2.378-2.38 2.378H2.38c-1.315 0-2.38-1.065-2.38-2.379s1.065-2.379 2.38-2.379zM2.38 81.172h106.24c1.315 0 2.38 1.065 2.38 2.38 0 1.313-1.065 2.379-2.38 2.379H2.38C1.064 85.93 0 84.865 0 83.55c0-1.314 1.065-2.379 2.38-2.379zM2.38 112.242h106.24c1.315 0 2.38 1.065 2.38 2.379S109.935 117 108.62 117H2.38C1.064 117 0 115.935 0 114.62c0-1.313 1.065-2.378 2.38-2.378z" transform="translate(135.000000, 36.000000)"/>
                        </g>
                    </g>
                    <g transform="translate(12.000000, 74.000000)">
                        <mask id="chtcv7050e" fill="#fff">
                            <use xlink:href="#krabcw5tcd"/>
                        </mask>
                        <use fill="#FFFEFD" xlink:href="#krabcw5tcd"/>
                        <g mask="url(#chtcv7050e)">
                            <g>
                                <path fill="#DDB2CA" d="M7.238 123.896L47.816 65.307 112 66.075 111.851 0 59.545 0 0 0 0 136.503z" transform="translate(0.000000, -56.503497)"/>
                                <g transform="translate(0.000000, -56.503497) translate(50.653266, 52.587413)">
                                    <path fill="#898989" d="M15.208 13.655H16.497V27.31H15.208zM44.077 13.655H45.366V27.31H44.077z"/>
                                    <path fill="#898989" d="M29.385 9.011L30.673 9.011 30.673 36.333 29.385 36.333z" transform="translate(30.029035, 22.672065) rotate(-90.000000) translate(-30.029035, -22.672065)"/>
                                    <path fill="#898989" d="M29.643 -17.792L31.704 -17.792 31.704 43.555 29.643 43.555z" transform="translate(30.673367, 12.881855) rotate(-270.000000) translate(-30.673367, -12.881855)"/>
                                    <rect width="59.542" height="5.41" x=".258" y="6.441" fill="#FFFEFD" rx="2.705"/>
                                    <circle cx="15.595" cy="27.181" r="1" fill="#D8D8D8" stroke="#898989" stroke-width="4"/>
                                    <circle cx="44.464" cy="27.181" r="1" fill="#D8D8D8" stroke="#898989" stroke-width="4"/>
                                    <g>
                                        <path fill="#E6BFB6" d="M10.826 3.248L10.095 5.249 8.298 5.249 8.298 3.248z" transform="translate(3.608754, 0.000000)"/>
                                        <path fill="#FFD5CB" d="M8.298 5.24c.923-.432 1.437-1.019 1.543-1.76.158-1.11-.228-2.1-1.324-2.297l-.705-.124.042-.57-1.568.386L3.88.67 2.812.875 2.628 5.11 5.71 6.312l1.956-.252.63-.82z" transform="translate(3.608754, 0.000000)"/>
                                        <path fill="#131313" d="M3.81.67l-.332 3.07 1.815 1.17c-.186.984.45 1.133 1.907.446l1.098.02c-.11.882-.32 1.323-.631 1.323L.972 6.663C-.396 4.896-.32 2.898 1.199.67 1.783-.187 2.351.023 2.812.023c.48 0 .812.215.999.647z" transform="translate(3.608754, 0.000000)"/>
                                    </g>
                                    <path fill="#69013B" d="M13.146 11.851v-5.02c1.044-3.408 1.607-5.227 1.689-5.456.082-.23.259-.344.53-.344h42.148c2.04.433 3.06 2.149 3.06 5.145 0 2.997-1.02 4.889-3.06 5.675H13.146z"/>
                                    <path stroke="#69013B" stroke-linecap="square" d="M0.368 10.95L60.464 10.95" filter="url(#ttnntifxtf)"/>
                                </g>
                                <g transform="translate(0.000000, -56.503497) translate(25.326633, 69.090909)">
                                    <path fill="#898989" d="M19.025 17.703H20.825V34.637H19.025zM55.019 17.703H56.818999999999996V34.637H55.019z"/>
                                    <path fill="#898989" d="M37.024 11.51L38.82 11.51 38.82 46.218 37.024 46.218z" transform="translate(37.922163, 28.864239) rotate(-90.000000) translate(-37.922163, -28.864239)"/>
                                    <path fill="#898989" d="M37.282 -22.145L40.105 -22.145 40.105 55.242 37.282 55.242z" transform="translate(38.693467, 16.548830) rotate(-270.000000) translate(-38.693467, -16.548830)"/>
                                    <rect width="74.816" height="6.671" x=".257" y="8.21" fill="#FFFEFD" rx="3.335"/>
                                    <circle cx="19.668" cy="34.509" r="1" fill="#D8D8D8" stroke="#898989" stroke-width="4"/>
                                    <circle cx="55.919" cy="34.509" r="1" fill="#D8D8D8" stroke="#898989" stroke-width="4"/>
                                    <g>
                                        <path fill="#E6BFB6" d="M13.369 4.105L12.467 6.634 10.247 6.634 10.247 4.105z" transform="translate(4.627778, 0.000000)"/>
                                        <path fill="#FFD5CB" d="M10.247 6.624c1.14-.547 1.775-1.289 1.906-2.224.195-1.403-.281-2.656-1.635-2.905l-.87-.156.05-.722-1.935.489-2.972-.26-1.318.26-.228 5.353 3.808 1.52 2.415-.32.78-1.035z" transform="translate(4.627778, 0.000000)"/>
                                        <path fill="#131313" d="M4.706.846l-.411 3.882 2.242 1.479c-.23 1.243.555 1.43 2.355.563l1.355.026c-.135 1.114-.395 1.67-.78 1.67L1.2 8.423C-.489 6.188-.395 3.663 1.48.846 2.203-.237 2.905.03 3.473.03c.592 0 1.004.272 1.234.817z" transform="translate(4.627778, 0.000000)"/>
                                    </g>
                                    <path fill="#69013B" d="M16.454 15.394V8.967c1.314-4.365 2.022-6.694 2.125-6.987.103-.294.325-.44.667-.44h53.006c2.566.555 3.85 2.751 3.85 6.588s-1.284 6.26-3.85 7.266H16.454z"/>
                                    <path stroke="#69013B" stroke-linecap="square" d="M0.395 13.983L75.964 13.983" filter="url(#wq7y47xgog)"/>
                                </g>
                                <g transform="translate(0.000000, -56.503497) translate(3.095477, 91.188811)">
                                    <path fill="#898989" d="M23.322 21.505H25.384V41.986000000000004H23.322zM28.218 13.057H29.764V27.906H28.218zM67.647 21.505H69.709V41.986000000000004H67.647z"/>
                                    <path fill="#898989" d="M45.491 13.686L47.539 13.686 47.539 56.206 45.491 56.206z" transform="translate(46.515147, 34.946071) rotate(-90.000000) translate(-46.515147, -34.946071)"/>
                                    <path fill="#898989" d="M45.753 -27.448L49.081 -27.448 49.081 67.386 45.753 67.386z" transform="translate(47.417085, 19.969183) rotate(-270.000000) translate(-47.417085, -19.969183)"/>
                                    <rect width="91.999" height="8.192" x=".129" y="9.985" fill="#FFFEFD" rx="4.096"/>
                                    <ellipse cx="24.353" cy="41.986" fill="#D8D8D8" stroke="#898989" stroke-width="4" rx="1.35" ry="1.328"/>
                                    <circle cx="29.12" cy="27.778" r="1" fill="#D8D8D8" stroke="#898989" stroke-width="4"/>
                                    <ellipse cx="68.677" cy="41.986" fill="#D8D8D8" stroke="#898989" stroke-width="4" rx="1.35" ry="1.328"/>
                                    <g>
                                        <path fill="#E6BFB6" d="M16.466 5.06L15.355 8.178 12.621 8.178 12.621 5.06z" transform="translate(5.540614, 0.000000)"/>
                                        <path fill="#FFD5CB" d="M12.621 8.165c1.404-.674 2.186-1.588 2.347-2.741.241-1.73-.346-3.274-2.014-3.581l-1.071-.192.062-.89-2.383.602-3.661-.32-1.624.32-.28 6.6 4.69 1.872 2.974-.393.96-1.277z" transform="translate(5.540614, 0.000000)"/>
                                        <path fill="#131313" d="M5.796 1.043L5.29 5.828l2.76 1.823c-.283 1.533.684 1.764 2.902.694l1.67.032c-.168 1.373-.488 2.06-.96 2.06L1.477 10.38c-2.08-2.753-1.965-5.865.346-9.338C2.712-.292 3.576.035 4.277.035c.73 0 1.236.336 1.52 1.008z" transform="translate(5.540614, 0.000000)"/>
                                    </g>
                                    <path fill="#69013B" d="M19.972 18.433v-7.72c1.617-5.242 2.489-8.04 2.616-8.392.127-.353.4-.529.821-.529h65.268c3.16.667 4.74 3.305 4.74 7.914 0 4.608-1.58 7.517-4.74 8.727H19.972z"/>
                                    <path stroke="#69013B" stroke-linecap="square" d="M0.298 17.281L92.99 17.281" filter="url(#nmi4x6ie3h)"/>
                                </g>
                            </g>
                        </g>
                    </g>
                    <path fill="#69013B" d="M18 14h28c3.314 0 6 2.686 6 6s-2.686 6-6 6H18c-3.314 0-6-2.686-6-6s2.686-6 6-6z"/>
                    <path fill="#EDE0E6" d="M14.5 31h107c1.38 0 2.5 1.12 2.5 2.5s-1.12 2.5-2.5 2.5h-107c-1.38 0-2.5-1.12-2.5-2.5s1.12-2.5 2.5-2.5zM14.5 39h107c1.38 0 2.5 1.12 2.5 2.5s-1.12 2.5-2.5 2.5h-107c-1.38 0-2.5-1.12-2.5-2.5s1.12-2.5 2.5-2.5zM14.5 48h107c1.38 0 2.5 1.12 2.5 2.5s-1.12 2.5-2.5 2.5h-107c-1.38 0-2.5-1.12-2.5-2.5s1.12-2.5 2.5-2.5zM14.5 56h107c1.38 0 2.5 1.12 2.5 2.5s-1.12 2.5-2.5 2.5h-107c-1.38 0-2.5-1.12-2.5-2.5s1.12-2.5 2.5-2.5zM14.5 64h107c1.38 0 2.5 1.12 2.5 2.5s-1.12 2.5-2.5 2.5h-107c-1.38 0-2.5-1.12-2.5-2.5s1.12-2.5 2.5-2.5z"/>
                    <path fill="#FFFEFD" d="M141 126h39c3.314 0 6 2.686 6 6v5c0 3.314-2.686 6-6 6h-39c-3.314 0-6-2.686-6-6v-5c0-3.314 2.686-6 6-6z"/>
                    <rect width="51" height="17" x="195" y="126" fill="#FFFEFD" rx="6"/>
                    <path fill="#FFFEFD" d="M186 11h52c3.314 0 6 2.686 6 6v9c0 3.314-2.686 6-6 6h-52c-3.314 0-6-2.686-6-6v-9c0-3.314 2.686-6 6-6z"/>
                </g>
                <g>
                    <g>
                        <path fill="#F7F2F5" d="M12.02 135C4.007 133.735 0 129.098 0 121.089c.422-4.637 2.741-13.49 6.96-26.557 4.217-13.068 11.387-23.396 21.51-30.984 2.49-1.66 10.09-2.503 22.799-2.529H72.73c12.709.026 20.309.87 22.8 2.529 10.122 7.588 17.292 17.916 21.51 30.984 4.218 13.068 6.537 21.92 6.959 26.557 0 8.01-4.007 12.646-12.02 13.911H12.02z" transform="translate(-212.000000, -183.000000) translate(212.000000, 192.000000) translate(166.000000, 92.000000)"/>
                        <path fill="#C16193" stroke="#979797" d="M46.946 60.164l33.156 1.409c-.058.187-.118.375-.18.565l-.125.383c-.128.386-.263.778-.405 1.177l-.144.401-.15.406-.075.205h0l-.156.413-.16.417-.166.423-.17.426-.22.54h0l-.225.548-.187.443-.19.447-.098.226h0l-.198.454-.203.46-.207.463-.266.586h0l-.273.594-.223.48-.286.606h0l-.294.614-.24.496-.244.5-.141.286-.297.596-.156.31-.327.646-.347.679-.182.351-.377.728-.604 1.153-.428.81-.68 1.275-.478.892-.756 1.4-.529.973-.831 1.522-.58 1.056-.906 1.646-.63 1.138-.982 1.768-.68 1.22-1.059 1.892-.73 1.303-1.134 2.014-.388.688c-8.815-13.28-13.765-25.955-14.85-38.028z" transform="translate(-212.000000, -183.000000) translate(212.000000, 192.000000) translate(166.000000, 92.000000)"/>
                        <path fill="#FFFEFD" stroke="#F6B4D7" stroke-width="3" d="M85.408 64.054v.286h0l-.004.419h0l-.004.273h0l-.005.269h0l-.007.263h0l-.008.26h0l-.01.253h0l-.01.25h0l-.012.243h0l-.013.24h0l-.015.234h0l-.016.23h0l-.017.224h0l-.019.22-.01.108-.02.212-.011.104-.023.205h0l-.024.2h0l-.025.196h0l-.027.19-.013.094-.029.183-.015.09-.03.175h0l-.032.171-.017.084-.034.163-.017.08-.036.157-.019.076-.038.149-.02.072-.04.142c-.216.742-.489 1.276-.82 1.602l-4.523.61h0l2.673 3.449C72.66 89.217 65.875 96.658 61.763 98.552l-1.028.406 1.002-1.748h0l1.093-1.913h0l.784-1.376h0l.875-1.542h0l1.175-2.084h0l.984-1.757h0l.415-.744h0l.788-1.421h0l.464-.843h0l.528-.966h0l.17-.31h0l.564-1.044h0l.45-.84h0l.419-.789h0l.387-.739h0l.182-.35h0l.31-.6h0l.304-.596h0l.3-.59.149-.294.293-.582h0l.288-.578h0l.284-.571h0l.417-.846h0l.271-.556h0l.267-.548h0l.261-.542h0l.383-.798h0l.248-.523h0l.363-.768h0l.35-.749h0l.338-.728h0l.218-.474h0l.317-.692h0l.303-.669h0l.195-.432h0l.282-.629h0l.353-.797h0l.25-.566h0l.31-.71h0l.214-.5h0l.326-.763h0l.23-.547h0l.204-.486h0l.175-.425h0l.178-.44h0l.11-.277h0l.08-.207h0l.028-.077h0l.02-.058h0l.013-.04h0l.004-.012c.032-.125.157-.181.377-.17l.06.005h0l.064.008h0l.068.01h0l.072.014h0l.077.017h0l.08.02h0l.086.023h0l.09.026h0l.093.03h0l.098.032h0l.103.035h0l.106.039h0l.111.041h0l.115.045h0l.12.048h0l.187.077h0l.197.084h0l.136.06h0l.14.063h0l.22.101h0l.229.107h0l.158.076h0l.245.119h0l.254.126h0l.264.133h0l.274.14h0l.38.197h0l.397.21h0l.414.221h0l.432.235.11.06zm-38.615-3.362c-.433 2.58-.18 4.459.386 6.33l.08.254c.067.213.138.426.212.64l.091.258h0l.094.26h0l.096.26h0l.15.397h0l.206.54h0l.322.839h0l.11.289h0l.11.294h0l.112.3h0l.111.306h0l.112.313h0l.113.32c.317.915.633 1.918.924 3.049l.051.2c.115.456.284.997.506 1.623l.098.273c.05.14.104.283.16.43l.115.3h0l.121.31.063.158.131.326h0l.138.335h0l.145.347h0l.15.357h0l.158.367h0l.164.377h0l.17.388h0l.178.399h0l.183.408h0l.19.42h0l.197.43h0l.204.44h0l.21.45h0l.216.46h0l.223.472h0l.23.482h0l.236.492h0l.243.502h0l.25.513h0l.255.524h0l.263.533h0l.269.545h0l.415.836h0l.43.859h0l.296.586h0l.455.898h0l.312.612h0l.48.937h0l.494.961h0l.338.654h0l.52 1h0l.353.68h0l.544 1.038h0l.559 1.063h0l-.38-.394h0l-.748-.777h0l-.733-.765h0l-.718-.752h0l-.704-.74h0l-.689-.729h0l-.674-.716h0l-.66-.704h0l-.644-.692h0l-.63-.679h0l-.615-.667h0l-.6-.655h0l-.586-.643h0l-.57-.63h0l-.557-.62c-6.492-7.245-9.884-11.927-10.175-14.045l3.896-3.459-6.356-1.017 1.025-6.51.436-.215h0l.283-.138h0l.413-.2h0l.268-.13h0l.39-.186h0l.254-.119h0l.367-.171h0l.238-.11h0l.345-.156h0l.222-.1h0l.323-.142h0l.207-.09h0l.201-.086h0l.29-.121h0l.277-.113h0l.177-.07h0l.17-.067h0l.246-.092h0l.155-.057h0l.15-.053.072-.024.14-.047h0l.135-.043.065-.02.126-.037.06-.017.116-.032h0l.11-.027.053-.012.101-.022h0l.095-.017c.506-.086.736.005.69.274z" transform="translate(-212.000000, -183.000000) translate(212.000000, 192.000000) translate(166.000000, 92.000000)"/>
                        <g transform="translate(-212.000000, -183.000000) translate(212.000000, 192.000000) translate(166.000000, 92.000000) translate(27.190476, 57.897938)">
                            <path fill="#69013B" fill-rule="nonzero" d="M16.116 3.479l.094-.032c14.767-5.037 27.424-4.562 37.898 1.48C64.754 11.07 66.955 27.54 61.074 54.2l-.18.81-2.253-.508c5.903-26.239 3.884-42.047-5.685-47.568-9.75-5.625-21.585-6.122-35.577-1.44l-.33.112-.054.03c-4.548 2.531-6.563 5.894-6.203 10.236l.012.133-2.3.216c-.502-5.368 2.007-9.62 7.362-12.604l.25-.137z"/>
                            <path fill="#69013B" fill-rule="nonzero" d="M9.92 14.986c6.48 1.538 10.017 8.545 10.817 20.719.79 12.048-.301 19.094-3.666 21.35l-.103.067-1.233-1.956c2.188-1.385 3.24-6.9 2.854-16.38l-.027-.631c-.035-.743-.078-1.509-.13-2.298-.733-11.163-3.76-17.258-8.888-18.58l-.156-.04.532-2.251z"/>
                            <path fill="#69013B" fill-rule="nonzero" d="M9.289 15.014l.73 2.195c-6.305 2.106-8.775 8.26-7.304 18.875l.181 1.293.135.943.133.918.176 1.188.087.579.13.847.085.552.085.542.084.53.126.777.125.752.123.728.121.705.12.68.12.657.079.424.077.414.116.6.077.387.113.56.075.36.074.348.074.339.073.327.072.317.072.305.07.295.07.284.07.273.07.263.068.251.067.24.067.23.066.219c.044.142.087.277.13.404l.065.186.063.175c.084.226.166.422.246.59l.03.06-2.065 1.035c-.093-.186-.187-.4-.282-.641l-.071-.187c-.036-.095-.072-.195-.108-.299l-.072-.213-.073-.223-.073-.234-.073-.244-.037-.126-.075-.26-.074-.271-.075-.281-.076-.292-.076-.303-.076-.313-.077-.324-.077-.334-.078-.345-.078-.356-.078-.367-.08-.377-.08-.388-.08-.398-.08-.41-.08-.42-.082-.43-.082-.442-.083-.452-.124-.699-.084-.48-.084-.49-.085-.5-.128-.772-.087-.528-.086-.54-.087-.549-.176-1.132-.134-.878-.135-.903-.136-.927-.137-.952-.138-.977-.14-1.001C-1.164 24.92 1.68 17.682 9.064 15.09l.225-.077z"/>
                            <ellipse cx="16.12" cy="56.144" fill="#FFFEFD" rx="3.002" ry="3.008"/>
                            <ellipse cx="5.728" cy="55.912" fill="#FFFEFD" rx="3.002" ry="3.008"/>
                            <ellipse cx="59.767" cy="54.755" fill="#131313" rx="4.85" ry="4.859"/>
                            <ellipse cx="59.812" cy="54.841" fill="#FFFEFD" rx="2.771" ry="2.777"/>
                        </g>
                        <path fill="#DDB2CA" d="M51.878 51.534v10.117c.421 5.902 3.795 8.853 10.122 8.853s9.7-2.951 10.122-8.853V50.27H51.878v1.265z" transform="translate(-212.000000, -183.000000) translate(212.000000, 192.000000) translate(166.000000, 92.000000)"/>
                        <path fill="#DDB2CA" d="M46.816 42.681C49.77 50.27 54.83 54.063 62 54.063s12.231-3.794 15.184-11.382c4.217.422 6.326-1.475 6.326-5.69 0-1.687-.422-2.74-1.265-3.162 2.109-2.95 3.163-9.485 3.163-19.602-.422-5.058-3.796-8.852-10.122-11.382C68.959.316 63.266-.527 58.204.316c-4.64.843-6.96 2.319-6.96 4.426-3.373-2.107-6.115-1.686-8.224 1.265-3.163 4.426-3.796 14.543 0 26.557-2.53 1.265-3.163 3.584-1.898 6.956 1.688 2.108 3.164 3.161 4.429 3.161h1.265z" transform="translate(-212.000000, -183.000000) translate(212.000000, 192.000000) translate(166.000000, 92.000000)"/>
                        <path fill="#131313" d="M43.02 32.564c2.11-.843 3.796.633 5.062 4.427.843-2.951 1.687-4.637 2.53-5.059 1.266-1.686 1.687-3.372 1.266-5.058h1.898c3.374 1.686 6.326 2.529 8.857 2.529h8.224c2.953 0 4.64 2.53 5.061 7.588 0-3.373 1.266-5.059 3.796-5.059 1.687 0 2.53.632 2.53 1.897 2.532-4.637 3.586-11.382 3.164-20.234C83.3 6.429 76.762 2.002 65.796.316c-8.857-.843-13.708.632-14.551 4.426-4.458-2.17-7.41-1.328-8.857 2.53-3.796 10.117-.633 22.13.632 25.292z" transform="translate(-212.000000, -183.000000) translate(212.000000, 192.000000) translate(166.000000, 92.000000)"/>
                        <path fill="#ECB7D5" fill-rule="nonzero" d="M14.537 111.104c3.46-.098 6.541.046 9.238.435l.76.118c.25.041.496.085.74.13l.717.145c7.432 1.585 11.4 5.369 11.817 11.374l.017.287-.999.05c-.308-6.157-4.631-9.868-13.088-11.105l-.768-.104c-.26-.033-.524-.063-.79-.091l-.814-.078c-1.922-.166-4.024-.224-6.31-.173l-.492.012-.028-1z" transform="translate(-212.000000, -183.000000) translate(212.000000, 192.000000) translate(166.000000, 92.000000)"/>
                        <path fill="#ECB7D5" fill-rule="nonzero" d="M85.394 110.439c.343-.01.683-.018 1.019-.023l.999-.01c3.295-.012 6.252.191 8.87.61l.774.133c8.92 1.619 13.667 5.882 14.14 12.815l.018.298-1 .05c-.33-6.623-4.824-10.708-13.584-12.23l-.772-.126c-.261-.04-.526-.078-.794-.113l-.816-.1c-.275-.031-.555-.06-.837-.087l-.859-.074c-.435-.034-.878-.063-1.328-.087l-.913-.042-.465-.016-.945-.022c-.956-.016-1.944-.013-2.965.01l-.514.013-.028-1z" transform="translate(-212.000000, -183.000000) translate(212.000000, 192.000000) translate(166.000000, 92.000000) translate(98.303776, 117.358787) scale(-1, 1) translate(-98.303776, -117.358787)"/>
                        <path fill="#B188A8" d="M51.878 50.27v3.16c6.326 2.952 13.074 2.32 20.244-1.896v-1.265c-2.53 2.108-5.904 3.162-10.122 3.162s-7.592-1.054-10.122-3.162z" transform="translate(-212.000000, -183.000000) translate(212.000000, 192.000000) translate(166.000000, 92.000000)"/>
                    </g>
                    <g>
                        <path fill="#DDB2CA" d="M3.167 44.173h71.566V45c0 1.657-1.343 3-3 3H6.167c-1.657 0-3-1.343-3-3v-.827z" transform="translate(-212.000000, -183.000000) translate(212.000000, 192.000000) translate(166.000000, 92.000000) translate(24.000000, 87.000000)"/>
                        <path fill="#69013B" d="M4.422 40.822L73.478 40.822 74.733 44.173 3.167 44.173z" transform="translate(-212.000000, -183.000000) translate(212.000000, 192.000000) translate(166.000000, 92.000000) translate(24.000000, 87.000000)"/>
                        <path fill="#DDB2CA" d="M5.362 0h67.264c2.762 0 5 2.239 5 5 0 .12-.004.24-.013.36l-2.545 35.287c-.189 2.615-2.365 4.64-4.987 4.64H7.829c-2.626 0-4.804-2.031-4.988-4.65L.374 5.348C.181 2.594 2.258.205 5.014.012 5.128.004 5.244 0 5.361 0z" transform="translate(-212.000000, -183.000000) translate(212.000000, 192.000000) translate(166.000000, 92.000000) translate(24.000000, 87.000000)"/>
                        <path fill="#69013B" d="M39.267 27.428c2.098 0 3.8-1.076 3.8-3.19 0-2.113-1.702-3.189-3.8-3.189-2.099 0-3.8 1.076-3.8 3.19 0 2.113 1.701 3.189 3.8 3.189z" transform="translate(-212.000000, -183.000000) translate(212.000000, 192.000000) translate(166.000000, 92.000000) translate(24.000000, 87.000000)"/>
                    </g>
                </g>
                <path fill="#C16193" fill-rule="nonzero" d="M227.634 133c-1.232 0-1.764-.872-1.607-2.157.042-.35.133-.71.257-1.071.04-.116.08-.227.123-.333l.083-.2.061-.134 1.503-4.105.678.463-1.517 4.143-.09.202c-.052.123-.105.258-.154.402-.097.283-.166.559-.196.804-.075.618.079.914.731.947l.128.003H229V133h-1.366z" opacity=".314" transform="translate(-212.000000, -183.000000) translate(212.000000, 192.000000)"/>
                <g>
                    <path fill="#131313" d="M0 .256c.51 0 1.019.172 1.528.516.764.516-.269.394 1.242-.093C4.281.19 13.852-.783 15.363 1.166l3.356-.05C19.356.428 20.502.084 22.157.084c2.483 0 6.495-.344 9.933.86L34 .256c-.891.918-1.464 2.237-1.72 3.958-.254 1.72-.763 3.154-1.527 4.301-.459.832-1.643 1.305-3.553 1.42-2.865.172-4.785 0-5.793-.487-1.007-.487-2.098-.481-2.862-6.504h-3.09c-.116 2.338-.556 4.08-1.32 5.227-.764 1.147-1.72 1.721-2.865 1.721H5.92c-2.42-.23-3.756-1.606-4.01-4.13C1.654 3.238 1.018 1.403 0 .256z" transform="translate(-212.000000, -183.000000) translate(212.000000, 192.000000) translate(211.000000, 123.000000)"/>
                    <path fill="#FFFEFD" d="M20.1 2.302c.18-.93.54-1.302 3.779-1.302 3.24 0 6.658.186 7.018 1.116.24.62.06 2.047-.54 4.28-.6 1.736-1.38 2.604-2.34 2.604H22.98c-1.08-.124-1.86-.868-2.34-2.233-.719-2.046-.719-3.534-.539-4.465z" transform="translate(-212.000000, -183.000000) translate(212.000000, 192.000000) translate(211.000000, 123.000000)"/>
                    <path fill="#FFFEFD" d="M3.1 2.302C3.28 1.372 3.64 1 6.879 1c3.24 0 6.658.186 7.018 1.116.24.62.06 2.047-.54 4.28-.6 1.736-1.38 2.604-2.34 2.604H5.98c-1.08-.124-1.86-.868-2.34-2.233C2.92 4.721 2.92 3.233 3.1 2.302z" transform="translate(-212.000000, -183.000000) translate(212.000000, 192.000000) translate(211.000000, 123.000000) translate(8.500000, 5.000000) scale(-1, 1) translate(-8.500000, -5.000000)"/>
                </g>
                <path d="M0 0H320V227H0z" transform="translate(-212.000000, -183.000000) translate(212.000000, 192.000000)"/>
            </g>
        </g>
    </g>
</svg>
