
<svg xmlns="http://www.w3.org/2000/svg" width="291" height="200" viewBox="0 0 291 200">
    <g fill="none" fill-rule="evenodd">
        <g>
            <g transform="translate(-15 -53) translate(15 53)">
                <g transform="translate(70)">
                    <path fill="#69013B" d="M35.892 146.82c2.418 0 4.378 1.96 4.378 4.377v43.772c0 2.417-1.96 4.377-4.378 4.377-2.417 0-4.377-1.96-4.377-4.377v-43.772c0-2.417 1.96-4.377 4.377-4.377z" transform="rotate(45 35.892 173.083)"/>
                    <path fill="#69013B" d="M119.058 146.82c2.417 0 4.377 1.96 4.377 4.377v43.772c0 2.417-1.96 4.377-4.377 4.377-2.418 0-4.377-1.96-4.377-4.377v-43.772c0-2.417 1.96-4.377 4.377-4.377z" transform="rotate(-45 119.058 173.083)"/>
                    <path fill="#131313" d="M62 11h26c3.866 0 7 3.134 7 7v4c0 3.866-3.134 7-7 7H62c-3.866 0-7-3.134-7-7v-4c0-3.866 3.134-7 7-7z" transform="rotate(-90 75 20)"/>
                    <rect width="40" height="18" x="55" y="13" fill="#69013B" rx="7"/>
                    <circle cx="75.5" cy="103.5" r="75.5" fill="#69013B"/>
                    <circle cx="75.5" cy="104.5" r="65.5" fill="#FFFEFD" opacity=".66"/>
                    <g fill="#69013B" transform="translate(13 44)">
                        <circle cx="62" cy="5.239" r="5.239"/>
                        <circle cx="90.38" cy="12.844" r="5.239" transform="rotate(30 90.38 12.844)"/>
                        <circle cx="111.156" cy="33.62" r="5.239" transform="rotate(60 111.156 33.62)"/>
                        <circle cx="118.761" cy="62" r="5.239" transform="rotate(90 118.76 62)"/>
                        <circle cx="111.156" cy="90.38" r="5.239" transform="rotate(120 111.156 90.38)"/>
                        <circle cx="90.38" cy="111.156" r="5.239" transform="rotate(150 90.38 111.156)"/>
                        <circle cx="62" cy="118.761" r="5.239" transform="rotate(180 62 118.76)"/>
                        <circle cx="33.62" cy="111.156" r="5.239" transform="rotate(-150 33.62 111.156)"/>
                        <circle cx="12.844" cy="90.38" r="5.239" transform="rotate(-120 12.844 90.38)"/>
                        <circle cx="5.239" cy="62" r="5.239" transform="rotate(-90 5.24 62)"/>
                        <circle cx="12.844" cy="33.62" r="5.239" transform="rotate(-60 12.844 33.62)"/>
                        <circle cx="33.62" cy="12.844" r="5.239" transform="rotate(-30 33.62 12.844)"/>
                    </g>
                    <path fill="#FFFEFD" d="M75.5 59c1.466 0 2.654 1.188 2.654 2.654v30.9C83.224 93.74 87 98.246 87 103.625 87 109.907 81.851 115 75.5 115S64 109.907 64 103.625c0-5.379 3.775-9.886 8.847-11.07V61.653c0-1.466 1.187-2.654 2.653-2.654z"/>
                    <rect width="5" height="38" x="73" y="68" fill="#69013B" rx="2.5"/>
                </g>
                <rect width="291" height="7" y="193" fill="#131313" rx="3.5"/>
            </g>
        </g>
    </g>
</svg>
