
<svg xmlns="http://www.w3.org/2000/svg" width="93" height="93" viewBox="0 0 93 93">
    <g fill="none" fill-rule="evenodd">
        <g fill-rule="nonzero">
            <g transform="translate(-114 -86) translate(114 86)">
                <circle cx="46.5" cy="46.5" r="46.5" fill="#F15249"/>
                <path fill="#AD0E0E" d="M28.304 68.195L53.054 93C73.895 90.534 90.394 74.143 93 53.254l-24.894-24.95-39.802 39.891z"/>
                <path fill="#FFF" d="M66.207 58.703c2.028 2.021 2.028 5.487 0 7.509l-4.056 4.043c-2.028 2.022-5.505 2.022-7.533 0L22.75 38.485c-2.028-2.021-2.028-5.487 0-7.51l4.201-4.187c2.028-2.022 5.505-2.022 7.533 0l31.724 31.915z"/>
                <path fill="#D6D6D6" d="M49.576 40.435L37.402 52.668l17.585 17.518c2.104 2.114 5.711 2.114 7.815 0l4.359-4.38c2.104-2.114 2.104-5.738 0-7.853L49.576 40.435z"/>
                <path fill="#FFF" d="M54.515 26.793c2.021-2.028 5.487-2.028 7.51 0l4.187 4.2c2.022 2.029 2.022 5.505 0 7.533L34.297 70.251c-2.021 2.028-5.487 2.028-7.509 0l-4.043-4.056c-2.022-2.028-2.022-5.505 0-7.533l31.77-31.87z"/>
            </g>
        </g>
    </g>
</svg>
