
<svg xmlns="http://www.w3.org/2000/svg" width="20" height="20" viewBox="0 0 20 20">
    <defs>
        <filter id="euqr87s6ha" color-interpolation-filters="auto">
            <feColorMatrix in="SourceGraphic" values="0 0 0 0 0.216238 0 0 0 0 0.605160 0 0 0 0 0.227309 0 0 0 1.000000 0"/>
        </filter>
    </defs>
    <g fill="none" fill-rule="evenodd">
        <g>
            <g filter="url(#euqr87s6ha)" transform="translate(-235.000000, -386.000000) translate(235.000000, 382.000000)">
                <g>
                    <path d="M0 0L20 0 20 20 0 20z" transform="translate(0.000000, 4.000000)"/>
                    <path fill="#000" fill-rule="nonzero" d="M9.833 9.083c-1.891-.491-2.5-1-2.5-1.791 0-.909.842-1.542 2.25-1.542 1.484 0 2.034.708 2.084 1.75h1.841c-.058-1.433-.933-2.75-2.675-3.175V2.5h-2.5v1.8c-1.616.35-2.916 1.4-2.916 3.008 0 1.925 1.591 2.884 3.916 3.442 2.084.5 2.5 1.233 2.5 2.008 0 .575-.408 1.492-2.25 1.492-1.716 0-2.391-.767-2.483-1.75H5.267c.1 1.825 1.466 2.85 3.066 3.192V17.5h2.5v-1.792c1.625-.308 2.917-1.25 2.917-2.958 0-2.367-2.025-3.175-3.917-3.667z" transform="translate(0.000000, 4.000000)"/>
                </g>
            </g>
        </g>
    </g>
</svg>
