
<svg xmlns="http://www.w3.org/2000/svg" width="20" height="20" viewBox="0 0 20 20">
    <defs>
        <filter id="1zseq06rra">
            <feColorMatrix in="SourceGraphic" values="0 0 0 0 0.074510 0 0 0 0 0.074510 0 0 0 0 0.074510 0 0 0 1.000000 0"/>
        </filter>
    </defs>
    <g fill="none" fill-rule="evenodd">
        <g>
            <g>
                <g>
                    <g filter="url(#1zseq06rra)" transform="translate(-15 -762) translate(0 470) translate(0 278) translate(15 14)">
                        <path d="M0 0H20V20H0z"/>
                        <g fill="red" fill-rule="nonzero">
                            <path d="M3.735 0v2.053c-.404.05-.801.14-1.188.267-.633.211-1.198.59-1.635 1.095l-.027.032C.487 3.936.258 4.54.235 5.17c-.042.691.17 1.374.595 1.92l.033.043c.394.467.902.825 1.474 1.04.57.21 1.155.378 1.75.5.44.095.723.16.976.23h.027c.33.08.603.152.845.222.288.086.563.212.815.375.143.09.265.21.357.352.09.174.135.368.128.563v.045c.008.24-.063.476-.203.672-.21.278-.497.487-.825.603-.505.193-1.044.283-1.585.265H4.56c-.586.019-1.169-.101-1.7-.35-.26-.136-.484-.332-.652-.572l-.58-.816L0 11.425l.578.825c.358.504.832.914 1.382 1.197l.028.013c.553.258 1.143.426 1.75.5V16h2v-2.08c.404-.063.8-.168 1.182-.315.684-.253 1.282-.697 1.72-1.28.712-1.026.792-2.364.207-3.467l-.014-.026c-.251-.414-.593-.767-1-1.03-.407-.254-.847-.451-1.308-.584-.265-.078-.565-.158-.923-.25-.285-.078-.595-.15-1.072-.25-.5-.103-.992-.244-1.47-.423-.243-.09-.46-.24-.63-.435-.134-.16-.203-.362-.195-.57v-.098c.016-.173.083-.339.193-.474.2-.232.46-.404.75-.5.475-.159.974-.232 1.474-.218h.033c.379 0 .756.049 1.123.147.25.07.486.182.697.333.132.092.246.208.335.342l.553.835L9.06 4.553l-.553-.836c-.226-.342-.515-.64-.852-.875-.398-.281-.842-.492-1.313-.622-.2-.055-.402-.1-.607-.133V0h-2z" transform="translate(5.06 2)"/>
                        </g>
                    </g>
                </g>
            </g>
        </g>
    </g>
</svg>
