
<svg xmlns="http://www.w3.org/2000/svg" width="20" height="20" viewBox="0 0 20 20">
    <defs>
        <filter id="r7sz170xua" color-interpolation-filters="auto">
            <feColorMatrix in="SourceGraphic" values="0 0 0 0 0.074510 0 0 0 0 0.074510 0 0 0 0 0.074510 0 0 0 1.000000 0"/>
        </filter>
    </defs>
    <g fill="none" fill-rule="evenodd">
        <g>
            <g>
                <g>
                    <g>
                        <g>
                            <g filter="url(#r7sz170xua)" transform="translate(-999.000000, -526.000000) translate(153.000000, 134.000000) translate(498.000000, 0.000000) translate(15.000000, 27.000000) translate(78.000000, 0.000000) translate(0.000000, 330.000000)">
                                <g>
                                    <path d="M0 0L20 0 20 20 0 20z" transform="translate(255.000000, 35.000000)"/>
                                    <path fill="#131313" fill-rule="nonzero" d="M18.333 5c0-.917-.75-1.667-1.666-1.667H3.333c-.916 0-1.666.75-1.666 1.667v10c0 .917.75 1.667 1.666 1.667h13.334c.916 0 1.666-.75 1.666-1.667V5zm-1.666 0L10 9.167 3.333 5h13.334zm0 10H3.333V6.667L10 10.833l6.667-4.166V15z" transform="translate(255.000000, 35.000000)"/>
                                </g>
                            </g>
                        </g>
                    </g>
                </g>
            </g>
        </g>
    </g>
</svg>
