<svg xmlns="http://www.w3.org/2000/svg" width="20" height="20" viewBox="0 0 20 20">
    <defs>
        <filter id="x3oisk1tpa" color-interpolation-filters="auto">
            <feColorMatrix in="SourceGraphic" values="0 0 0 0 0.074510 0 0 0 0 0.074510 0 0 0 0 0.074510 0 0 0 1.000000 0"/>
        </filter>
    </defs>
    <g fill="none" fill-rule="evenodd">
        <g>
            <g filter="url(#x3oisk1tpa)" transform="translate(-999.000000, -471.000000) translate(744.000000, 436.000000)">
                <g>
                    <path d="M0 0h20v20H0V0zm0 0h20v20H0V0zm0 0h20v20H0V0zm0 0h20v20H0V0z" transform="translate(255.000000, 35.000000)"/>
                    <path fill="#131313" fill-rule="nonzero" d="M10 5c3.158 0 5.975 1.775 7.35 4.583-.492 1.017-1.183 1.892-2.008 2.6l1.175 1.175c1.158-1.025 2.075-2.308 2.65-3.775-1.442-3.658-5-6.25-9.167-6.25-1.058 0-2.075.167-3.033.475l1.375 1.375C8.883 5.075 9.433 5 10 5zm-.892.95l1.725 1.725c.475.208.859.592 1.067 1.067l1.725 1.725c.067-.284.117-.584.117-.892.008-2.067-1.675-3.742-3.742-3.742-.308 0-.6.042-.892.117zM1.675 3.225l2.233 2.233C2.55 6.525 1.475 7.942.833 9.583c1.442 3.659 5 6.25 9.167 6.25 1.267 0 2.483-.241 3.6-.683L16.45 18l1.175-1.175L2.85 2.042 1.675 3.225zm6.25 6.25L10.1 11.65c-.033.008-.067.017-.1.017-1.15 0-2.083-.934-2.083-2.084 0-.041.008-.066.008-.108zM5.092 6.642L6.55 8.1c-.192.458-.3.958-.3 1.483 0 2.067 1.683 3.75 3.75 3.75.525 0 1.025-.108 1.475-.3l.817.817c-.734.2-1.5.317-2.292.317-3.158 0-5.975-1.775-7.35-4.584.583-1.191 1.433-2.175 2.442-2.941z" transform="translate(255.000000, 35.000000)"/>
                </g>
            </g>
        </g>
    </g>
</svg>
