
<svg xmlns="http://www.w3.org/2000/svg" width="78" height="100" viewBox="0 0 78 100">
    <g fill="none" fill-rule="evenodd">
        <g fill="#69013B" fill-rule="nonzero">
            <g>
                <path d="M66.966 0c5.523 0 10 4.477 10 10 0 .058 0 .117-.002.175l-1.25 71.254h-65c-3.55 0-6.428 2.878-6.428 6.428s2.878 6.429 6.428 6.429h66.429c0 3.156-2.559 5.714-5.714 5.714H10c-5.523 0-10-4.477-10-10V10C0 4.477 4.477 0 10 0h56.966zm-22.68 27.143H32.857c-.628 0-1.143.514-1.143 1.143v9.143h-9.143c-.628 0-1.142.514-1.142 1.142V50c0 .629.514 1.143 1.142 1.143h9.143v9.143c0 .628.515 1.143 1.143 1.143h11.429c.628 0 1.143-.515 1.143-1.143v-9.143h9.142c.629 0 1.143-.514 1.143-1.143V38.571c0-.628-.514-1.142-1.143-1.142H45.43v-9.143c0-.629-.515-1.143-1.143-1.143z" transform="translate(-1027.000000, -1425.000000) translate(1027.000000, 1425.000000)"/>
            </g>
        </g>
    </g>
</svg>
