
<svg xmlns="http://www.w3.org/2000/svg" width="320" height="253.5" viewBox="0 0 320 232">
    <g fill="none" fill-rule="evenodd">
        <g>
            <g>
                <g transform="translate(-242.000000, -192.000000) translate(242.000000, 192.000000) translate(14.000000, 0.000000)">
                    <g>
                        <path fill="#131313" d="M0 124.215c0-1.649 41.563-28.029 44.845-37.921 2.187-6.595 5.468-20.335 9.843-41.219C58.334 24.191 70.73 10.268 91.877 3.307c21.146-6.962 40.287-2.931 57.423 12.09 10.937 14.656 17.135 34.441 18.594 59.355 2.187 37.372 1.093 45.616-5.47 49.463-4.374 2.565-8.75 3.48-13.124 2.748V144H50.313c4.74-12.09 8.568-24.914 11.485-38.47-11.667 12.823-28.256 23.265-49.767 31.325-4.01-1.099-6.927-2.93-8.75-5.495C.547 127.512 0 125.864 0 124.215z" transform="translate(121.000000, 88.000000)"/>
                        <path fill="#898989" d="M12.031 136.855c22.605-8.793 39.194-19.235 49.767-31.326 10.573-12.09 10.573-21.617 0-28.578-.365 11.724-4.193 20.151-11.485 25.28-10.937 7.695-10.39 9.893-40.47 28.03 1.46.366 2.188 1.465 2.188 3.297v3.297zM147.112 13.749l9.844 52.21c5.833 32.242 4.922 49.646-2.735 52.21-11.484 3.848-18.047 6.596-57.97 6.596-1.1-.038-1.647-.038-1.64 0 1.094 5.495 1.293 7.694 2.734 7.694h7.657c-4.375 1.465-6.745 5.312-7.11 11.541H149.3v-17.037c10.573.733 16.77-3.114 18.594-11.541 2.734-12.64.546-63.202-8.204-81.339-5.833-12.09-10.026-18.869-12.578-20.334z" opacity=".262" transform="translate(121.000000, 88.000000)"/>
                        <path fill="#898989" d="M132.346 51.12c.365-1.832.912-1.832 1.64 0 1.095 2.748 11.485 45.066 10.938 52.21l-25.703 5.497c-2.917.732-4.558.55-4.922-.55-.547-1.649-.547-3.297 1.64-4.946 2.188-1.649 12.032-8.794 13.673-12.091 1.64-3.298 2.734-7.694 2.734-18.136V51.12z" opacity=".262" transform="translate(121.000000, 88.000000)"/>
                        <path fill="#DDB2CA" d="M93.517 115.422c.73 6.228 1.276 9.892 1.64 10.991-4.739-.732-9.114.367-13.124 3.298-3.282 1.832-6.38 2.381-9.297 1.649l-5.47 4.946c-2.551 1.832-3.827 1.832-3.827 0s1.64-3.664 4.922-5.496c-5.47 4.03-8.568 6.045-9.297 6.045-1.094 0-2.188 0 0-2.748 1.458-1.831 2.734-3.114 3.828-3.847.364-1.099-.183-1.282-1.64-.55-2.188 1.1-4.376 3.848-5.47 4.397-1.094.55-4.375 1.65-1.64-2.198 1.823-2.565 3.099-4.03 3.828-4.397l-5.47 2.199s-2.187 1.649-3.28 0c-.73-1.1 1.093-2.931 5.468-5.496 6.563-5.13 12.397-8.06 17.5-8.793 5.105-.733 9.48-.55 13.126.55 1.619.062 2.895.062 3.828 0 .934-.063 2.392-.246 4.375-.55z" transform="translate(121.000000, 88.000000)"/>
                    </g>
                    <g>
                        <path fill="#FFFEFD" d="M28.987 6.042c-4.74 0-8.204 1.648-10.392 4.944-3.281 4.944-13.126 18.676-15.313 39C1.823 63.536.729 75.436 0 85.69V156h77.115v-36.254l46.488 13.184c5.47-5.493 7.657-12.817 6.563-21.972L80.396 93.38l75.475-22.52c.73-10.62-1.64-17.212-7.11-19.775L80.397 65.366C66.1 47.476 56.075 35.208 50.317 28.563c-5.759-6.644-12.869-14.151-21.33-22.52z" transform="translate(-0.000000, 76.000000)"/>
                        <path fill="#F6F5F4" d="M35.003 0c14.584 14.282 23.882 24.718 27.892 31.31 4.011 6.591 6.563 13.915 7.657 21.972-10.195-12.997-17.305-21.785-21.33-26.367C36.92 12.911 29.477 6.534 28.988 6.042c-.73-.732 1.276-2.746 6.016-6.042z" transform="translate(-0.000000, 76.000000)"/>
                        <path fill="#F6F5F4" d="M25.158 156c-2.187-7.324-2.734-11.901-1.64-13.732 1.093-1.831 5.469-.916 13.125 2.746 8.386.366 10.574-2.197 6.563-7.69-4.01-5.493-8.203-11.17-12.579-17.028-1.458-3.296-1.276-4.944.547-4.944s8.569 4.944 20.236 14.831c6.928 6.592 12.397 7.14 16.408 1.648 4.01-5.493 4.01-12.268 0-20.324-17.502-17.944-31.721-35.521-42.66-52.732-5.834-9.888-8.75-18.127-8.75-24.719C34.638 65.55 53.962 85.324 74.38 93.38c-.365-3.662 1.276-6.408 4.922-8.24 3.646-1.83 25.887-8.055 66.724-18.675 4.74-2.93 6.38-7.324 4.922-13.183-.365-1.099.182-.733 1.64 1.098 2.188 2.747 3.83 7.141 3.282 16.48L80.397 93.38l49.77 17.578c1.093 9.155-1.095 16.479-6.564 21.972l-46.488-13.184V156H25.158z" transform="translate(-0.000000, 76.000000)"/>
                    </g>
                    <g>
                        <path fill="#DDB2CA" d="M11.067 43.234v20.509L7.194 76.49 26.56 97l2.766-13.857c1.107-3.326 2.767-4.62 4.98-3.88 3.32 1.108 3.874 2.771 13.28 1.663 6.272-.74 10.699-5.543 13.281-14.412l.553-3.325h4.427c.738-3.326-.184-6.467-2.767-9.423 1.107-6.652 1.107-12.195 0-16.629-1.66-6.651-12.173-28.823-32.094-21.063-13.28 5.174-19.92 14.227-19.92 27.16z" transform="translate(28.000000, 0.000000)"/>
                        <path fill="#131313" d="M19.367 6.097C6.456 6.837 0 14.597 0 29.377 0 44.158 3.32 55.43 9.96 63.19c7.378 4.434 13.65.923 18.814-10.532-1.844-2.956-2.398-5.727-1.66-8.314.738-2.587 2.029-3.695 3.873-3.326 2.952-.739 4.427 2.402 4.427 9.423h2.214c0-2.587.922-4.619 2.766-6.097 2.767-2.217 5.534-2.217 5.534-12.749 5.533 4.065 11.804 5.913 18.814 5.543 7.009-.37 10.698-3.88 11.066-10.531 1.107-10.347-2.582-15.52-11.066-15.52-8.485 0-16.6-2.956-24.348-8.869C36.336 0 31.91-.554 27.114.554c-4.05.936-6.087 5.543-7.747 5.543z" transform="translate(28.000000, 0.000000)"/>
                        <path fill="#EE9CAA" d="M25.454 71.503v-1.109c0-.739.369-.739 1.107 0 .737.74 2.582 3.696 5.533 8.869-1.475 1.108-2.398 2.402-2.767 3.88-.369 1.478-1.66-2.402-3.873-11.64z" transform="translate(28.000000, 0.000000)"/>
                    </g>
                    <g transform="translate(56.000000, 44.000000)">
                        <path fill="#69013B" fill-rule="nonzero" d="M3.596 4.864l.043.813.091 1.6c.125 2.112.262 4.135.412 6.067l.114 1.433.06.704.12 1.382c.042.455.084.905.127 1.349l.13 1.315c.066.649.134 1.285.204 1.91l.141 1.23c1.795 15.176 4.606 22.46 8.08 21.776 3.21-.632 5.015-3.31 5.403-8.27l.018-.25 1.657.11c-.369 5.447-2.385 8.799-6.056 9.847l-.03-.668c2.178 53.275 14.538 82.523 36.853 87.933l.626.145.32.024c12.29.827 25.072-8.618 38.294-28.484l.405-.612 1.392.89c-13.66 20.733-27.046 30.728-40.21 29.837l-.399-.03-.109-.017c-23.501-5.144-36.345-34.539-38.76-87.993l-.034-.78c-5.774-.228-9.043-13.617-10.504-40.32l-.046-.856 1.658-.085z"/>
                        <ellipse cx="2.767" cy="2.726" fill="#FFFEFD" rx="2.767" ry="2.726"/>
                    </g>
                    <g transform="translate(183.000000, 104.000000)">
                        <ellipse cx="10.52" cy="12.5" fill="#FFFEFD" rx="9.48" ry="12.5"/>
                        <ellipse cx="8.01" cy="12.5" fill="#898989" rx="7.529" ry="11.957"/>
                        <ellipse cx="6.692" cy="12.5" fill="#FFFEFD" rx="6.692" ry="10.628"/>
                    </g>
                    <path fill="#F3BFC7" d="M151 127.896c5.544-.749 9.978-3.556 13.305-8.42 3.326-4.866 6.282-7.86 8.87-8.983l11.641-4.49c6.283-1.872 7.391-1.123 3.326 2.245-4.065 3.368-5.913 4.865-5.543 4.49 4.065-2.245 7.391-2.993 9.978-2.245 3.88 1.123-1.109 3.368-3.88 4.491l-5.544 2.246c5.913 0 9.054.748 9.424 2.245.37 1.497-2.772 2.246-9.424 2.246 5.174.748 7.207 1.87 6.098 3.368h-8.316c-1.847 3.742-6.467 6.549-13.859 8.42-7.391 1.871-11.087 3.368-11.087 4.491-.88-2.906-1.62-4.965-2.217-6.175-.598-1.21-1.522-2.52-2.772-3.93z"/>
                    <circle cx="86.5" cy="48.5" r="2.5" fill="#FFFEFD"/>
                    <path fill="#69013B" d="M80 44c1.765-2 3.706-3 5.824-3C87.94 41 89 41.333 89 42v2h-9z"/>
                    <path fill="#FFFEFD" d="M207.148 93.681c2.205-2.97 8.268-5.013 18.19-6.127 14.882-1.671 26.457 0 21.497 11.14-3.308 7.428-10.473 11.513-21.497 12.255-8.82.372-14.515-1.3-17.087-5.013-2.573-3.714-2.94-7.798-1.103-12.255z"/>
                    <path fill="#DDB2CA" d="M218.852 81.439v7.08c-5.22.364-7.458 3.27-6.712 8.716.746 5.447 3.729 8.352 8.949 8.715 10.44.364 16.966-1.27 19.576-4.902 2.61-3.631 3.916-5.81 3.916-6.536 1.118-3.632 0-6.355-3.356-8.17L241.784 70l-22.932 8.715v2.724z"/>
                    <path fill="#131313" d="M246.932 64h1.659c6.265-8.084 9.03-18.556 8.293-31.416 0-9.553-3.686-15.249-11.058-17.086-2.58-7.349-7.187-10.84-13.822-10.472-9.951.551-22.114 1.654-31.513 7.716-6.266 4.042-9.399 7.533-9.399 10.472-.368 5.512.369 9.554 2.212 12.126 1.843 2.572 3.317 4.41 4.423 5.511L246.932 64z"/>
                    <path fill="#DDB2CA" d="M197.313 40.758l-.043.726c-1.02 17.498.851 28.95 5.613 34.358 7.24 8.223 11.139 9.868 38.429-5.482l5.57-6.03-2.228-1.096.557-5.482c5.94-2.193 7.982-6.213 6.126-12.06-1.857-3.29-4.27-2.924-7.24 1.096-.743 2.193-.929 4.02-.557 5.482h-1.671l-3.899-7.675c1.114-1.827.557-3.654-1.67-5.482-2.228-1.827-3.528-4.203-3.9-7.126 0-1.097-.556-1.28-1.67-.548-1.67 1.096-13.367 6.578-27.29.548-.743-.731-1.486-.731-2.228 0-1.114 1.096-2.785 2.193-3.342 3.837-.797 2.355-.405 2.456-.557 4.934z"/>
                    <circle cx="204.5" cy="54.5" r="2.5" fill="#FFFEFD"/>
                    <circle cx="220.5" cy="54.5" r="2.5" fill="#FFFEFD"/>
                    <path fill="#131313" d="M199.5 47.478c3-3.478 5.667-4.348 8-2.608l.5.521V48h-9l.5-.522zM218.07 49c-.33-2.667.496-4 2.479-4 1.982 0 3.8 1.333 5.451 4h-7.93z"/>
                    <path fill="#F0AAB1" d="M240 71.75V70c-6.83 5.444-13.83 9.139-21 11.083V84c3.415 0 6.317-.583 8.707-1.75 2.39-1.167 6.488-4.667 12.293-10.5z"/>
                    <path fill="#DDB2CA" d="M120.882 215.688l2.827-1.688c7.163 2.625 9.048 5.813 5.655 9.563-3.393 3.75-5.278 5.812-5.655 6.187l-1.13 2.25h-6.787l1.131-1.688c.377-2.25-1.32-3.187-5.09-2.812-3.77.375-6.031 1.875-6.785 4.5H96c4.147-7.125 9.236-11.625 15.268-13.5 2.09-.65 5.045.022 6.22-.563 1.509-.75 2.64-1.5 3.394-2.25zM130.825 192.145c8.664.377 13.937 0 15.82-1.129 1.884-1.129 2.638-1.317 2.26-.564L130.826 204H128c1.189-2.43 1.942-4.312 2.26-5.645.318-1.334.506-3.404.565-6.21z"/>
                </g>
                <path d="M0 0H320V232H0z" transform="translate(-242.000000, -192.000000) translate(242.000000, 192.000000)"/>
            </g>
        </g>
    </g>
</svg>
