<svg xmlns="http://www.w3.org/2000/svg" width="17" height="20" viewBox="0 0 17 20">
    <defs>
        <filter id="qs7rx3igsa" color-interpolation-filters="auto">
            <feColorMatrix in="SourceGraphic" values="0 0 0 0 0.074510 0 0 0 0 0.074510 0 0 0 0 0.074510 0 0 0 1.000000 0"/>
        </filter>
    </defs>
    <g fill="none" fill-rule="evenodd">
        <g>
            <g>
                <g>
                    <g>
                        <g>
                            <g filter="url(#qs7rx3igsa)" transform="translate(-1004.000000, -344.000000) translate(153.000000, 134.000000) translate(498.000000, 0.000000) translate(15.000000, 27.000000) translate(78.000000, 0.000000) translate(0.000000, 148.000000)">
                                <g fill="#131313" fill-rule="nonzero" transform="translate(260.000000, 35.000000)">
                                    <circle cx="12.521" cy="12.917" r="1"/>
                                    <path d="M12.292 9.23c-.167.166-.354.29-.542.416.417.437.958 1.187 1.083 2.041.563.126.98.646.98 1.23 0 .708-.563 1.27-1.271 1.27-.709 0-1.271-.562-1.271-1.27 0-.563.396-1.063.916-1.209-.124-.708-.645-1.354-1-1.708-.854.458-1.812.708-2.833.708-.979 0-1.916-.25-2.75-.666-.354.541-.917 1.604-1 2.875C5.667 13.083 6.48 14 6.48 15.125v1.48c0 .187-.146.332-.333.332H5.125c-.188 0-.333-.145-.333-.333 0-.187.146-.333.333-.333h.708v-1.167c0-.875-.708-1.583-1.583-1.583s-1.583.708-1.583 1.583v1.167h.708c.188 0 .333.146.333.333 0 .188-.146.334-.333.334H2.333c-.187 0-.333-.146-.333-.334v-1.479c0-1.125.833-2.063 1.938-2.208.083-1.438.687-2.584 1.083-3.209-.23-.146-.438-.291-.646-.479-2.458.73-4.25 3-4.25 5.667v3.729c0 .708.563 1.27 1.27 1.27h13.897c.708 0 1.27-.562 1.27-1.27v-3.73c-.02-2.687-1.812-4.957-4.27-5.666zm-.146 8.02c0 .104-.084.188-.188.188h-.833v.854c0 .104-.083.187-.188.187h-.729c-.104 0-.187-.083-.187-.187v-.855h-.834c-.104 0-.187-.083-.187-.187v-.75c0-.104.083-.188.188-.188h.833v-.854c0-.104.083-.187.187-.187h.73c.104 0 .187.083.187.187v.854h.833c.104 0 .188.084.188.188v.75z"/>
                                    <circle cx="8.333" cy="4.708" r="4.604"/>
                                </g>
                            </g>
                        </g>
                    </g>
                </g>
            </g>
        </g>
    </g>
</svg>
