
<svg xmlns="http://www.w3.org/2000/svg" width="92" height="92" viewBox="0 0 92 92">
    <g fill="none" fill-rule="evenodd">
        <g fill-rule="nonzero">
            <g transform="translate(-114 -87) translate(114 87)">
                <circle cx="46" cy="46" r="46" fill="#32BA7C"/>
                <path fill="#0AA06E" d="M34 67.284L57.754 91C77.427 85.762 92 67.866 92 46.478v-1.31L73.347 28 34 67.284z"/>
                <g fill="#FFF">
                    <path d="M31.806 33.644c2.036 2.032 2.036 5.517 0 7.55l-4.216 4.21c-2.036 2.032-5.525 2.032-7.561 0L1.563 26.82c-2.036-2.033-2.036-5.517 0-7.55l4.217-4.21c2.035-2.032 5.525-2.032 7.56 0l18.466 18.583z" transform="translate(16 23)"/>
                    <path d="M47.946 1.56c2.035-2.032 5.525-2.032 7.56 0l4.217 4.21c2.036 2.033 2.036 5.517 0 7.55L27.735 45.113c-2.035 2.032-5.525 2.032-7.56 0l-4.217-4.21c-2.036-2.033-2.036-5.517 0-7.55L47.946 1.562z" transform="translate(16 23)"/>
                </g>
            </g>
        </g>
    </g>
</svg>
