<svg xmlns="http://www.w3.org/2000/svg" width="20" height="20" viewBox="0 0 20 20">
    <defs>
        <filter id="q79j45y2xa" color-interpolation-filters="auto">
            <feColorMatrix in="SourceGraphic" values="0 0 0 0 0.074510 0 0 0 0 0.074510 0 0 0 0 0.074510 0 0 0 1.000000 0"/>
        </filter>
    </defs>
    <g fill="none" fill-rule="evenodd">
        <g>
            <g filter="url(#q79j45y2xa)" transform="translate(-999.000000, -248.000000) translate(744.000000, 213.000000)">
                <g>
                    <path d="M0 0L20 0 20 20 0 20z" transform="translate(255.000000, 35.000000)"/>
                    <path fill="#131313" fill-rule="nonzero" d="M10 5c3.158 0 5.975 1.775 7.35 4.583-1.375 2.809-4.192 4.584-7.35 4.584-3.158 0-5.975-1.775-7.35-4.584C4.025 6.775 6.842 5 10 5m0-1.667c-4.167 0-7.725 2.592-9.167 6.25 1.442 3.659 5 6.25 9.167 6.25s7.725-2.591 9.167-6.25c-1.442-3.658-5-6.25-9.167-6.25zM10 7.5c1.15 0 2.083.933 2.083 2.083 0 1.15-.933 2.084-2.083 2.084-1.15 0-2.083-.934-2.083-2.084S8.85 7.5 10 7.5m0-1.667c-2.067 0-3.75 1.684-3.75 3.75 0 2.067 1.683 3.75 3.75 3.75s3.75-1.683 3.75-3.75c0-2.066-1.683-3.75-3.75-3.75z" transform="translate(255.000000, 35.000000)"/>
                </g>
            </g>
        </g>
    </g>
</svg>
